<svg width="19" height="20" viewBox="0 0 19 20" fill="none" xmlns="http://www.w3.org/2000/svg">
<path d="M3.83333 1.5L1 4.9V16.8C1 17.2509 1.19901 17.6833 1.55324 18.0021C1.90748 18.3209 2.38792 18.5 2.88889 18.5H16.1111C16.6121 18.5 17.0925 18.3209 17.4468 18.0021C17.801 17.6833 18 17.2509 18 16.8V4.9L15.1667 1.5H3.83333Z" stroke="#218137" stroke-width="2" stroke-linecap="round" stroke-linejoin="round"/>
<path d="M1 4.8999H18" stroke="#218137" stroke-width="2" stroke-linecap="round" stroke-linejoin="round"/>
<path d="M13.2774 8.2998C13.2774 9.20154 12.8793 10.0663 12.1709 10.704C11.4624 11.3416 10.5015 11.6998 9.49958 11.6998C8.49765 11.6998 7.53676 11.3416 6.82829 10.704C6.11982 10.0663 5.7218 9.20154 5.7218 8.2998" stroke="#218137" stroke-width="2" stroke-linecap="round" stroke-linejoin="round"/>
</svg>
