<svg width="213" height="42" viewBox="0 0 213 42" fill="none" xmlns="http://www.w3.org/2000/svg">
<path d="M20.3789 31H0.183594V2.875H20.3789V6.46875H7.9375V15.1602H17.5469V18.7344H7.9375V27.4062H20.3789V31ZM44.5977 14.0273L41.7461 15.1602C41.2904 13.7279 40.5286 12.6276 39.4609 11.8594C38.3932 11.0911 37.1107 10.707 35.6133 10.707C34.806 10.707 34.0833 10.8372 33.4453 11.0977C32.8203 11.3451 32.2669 11.6901 31.7852 12.1328C31.3164 12.5755 30.9128 13.0898 30.5742 13.6758C30.2487 14.2617 29.9818 14.8867 29.7734 15.5508C29.5651 16.2148 29.4154 16.9049 29.3242 17.6211C29.2331 18.3242 29.1875 19.0078 29.1875 19.6719C29.1875 20.388 29.2266 21.1107 29.3047 21.8398C29.3828 22.569 29.513 23.2721 29.6953 23.9492C29.8906 24.6133 30.1445 25.2383 30.457 25.8242C30.7695 26.3971 31.1602 26.8984 31.6289 27.3281C32.1107 27.7578 32.6771 28.0964 33.3281 28.3438C33.9922 28.5911 34.7539 28.7148 35.6133 28.7148C36.3034 28.7148 36.9609 28.6107 37.5859 28.4023C38.2109 28.194 38.7839 27.901 39.3047 27.5234C39.8255 27.1458 40.2878 26.6966 40.6914 26.1758C41.0951 25.6549 41.4141 25.0755 41.6484 24.4375L44.5195 25.4922C44.0898 26.5208 43.5169 27.4128 42.8008 28.168C42.0977 28.9102 41.2969 29.5286 40.3984 30.0234C39.5 30.5052 38.5365 30.8633 37.5078 31.0977C36.4792 31.332 35.4375 31.4492 34.3828 31.4492C32.6771 31.4492 31.0951 31.1628 29.6367 30.5898C28.1784 30.0039 26.9154 29.1901 25.8477 28.1484C24.793 27.0938 23.9661 25.8503 23.3672 24.418C22.7682 22.9727 22.4688 21.3906 22.4688 19.6719C22.4688 17.9401 22.7617 16.3516 23.3477 14.9062C23.9466 13.4609 24.7734 12.2174 25.8281 11.1758C26.8828 10.1341 28.1393 9.32682 29.5977 8.75391C31.056 8.18099 32.651 7.89453 34.3828 7.89453C35.4766 7.89453 36.5443 8.01823 37.5859 8.26562C38.6276 8.5 39.5911 8.87109 40.4766 9.37891C41.375 9.8737 42.1758 10.5052 42.8789 11.2734C43.5951 12.0417 44.168 12.9596 44.5977 14.0273ZM72.332 19.6719C72.332 20.8438 72.1758 21.944 71.8633 22.9727C71.5508 24.0013 71.1146 24.9518 70.5547 25.8242C70.0078 26.6966 69.3438 27.4844 68.5625 28.1875C67.7812 28.8776 66.9219 29.4635 65.9844 29.9453C65.0599 30.4271 64.0638 30.7982 62.9961 31.0586C61.9414 31.319 60.8542 31.4492 59.7344 31.4492C58.6146 31.4492 57.5273 31.319 56.4727 31.0586C55.418 30.7982 54.4219 30.4271 53.4844 29.9453C52.5599 29.4635 51.707 28.8776 50.9258 28.1875C50.1445 27.4844 49.474 26.6966 48.9141 25.8242C48.3672 24.9518 47.9375 24.0013 47.625 22.9727C47.3125 21.931 47.1562 20.8307 47.1562 19.6719C47.1562 18.513 47.3125 17.4193 47.625 16.3906C47.9375 15.349 48.3672 14.3919 48.9141 13.5195C49.474 12.6471 50.1445 11.8659 50.9258 11.1758C51.707 10.4727 52.5599 9.88021 53.4844 9.39844C54.4219 8.91667 55.418 8.54557 56.4727 8.28516C57.5273 8.02474 58.6146 7.89453 59.7344 7.89453C60.8542 7.89453 61.9414 8.02474 62.9961 8.28516C64.0638 8.54557 65.0599 8.91667 65.9844 9.39844C66.9219 9.88021 67.7812 10.4727 68.5625 11.1758C69.3438 11.8659 70.0078 12.6471 70.5547 13.5195C71.1146 14.3919 71.5508 15.349 71.8633 16.3906C72.1758 17.4193 72.332 18.513 72.332 19.6719ZM65.6133 19.6719C65.6133 19.0469 65.5742 18.3893 65.4961 17.6992C65.431 16.9961 65.3138 16.3125 65.1445 15.6484C64.9753 14.9714 64.7409 14.3268 64.4414 13.7148C64.1549 13.0898 63.7969 12.5495 63.3672 12.0938C62.9375 11.625 62.4232 11.2539 61.8242 10.9805C61.2253 10.694 60.5286 10.5508 59.7344 10.5508C58.9792 10.5508 58.3086 10.694 57.7227 10.9805C57.1367 11.2669 56.6224 11.651 56.1797 12.1328C55.75 12.6016 55.3854 13.1484 55.0859 13.7734C54.7995 14.3984 54.5651 15.0495 54.3828 15.7266C54.2005 16.3906 54.0703 17.0677 53.9922 17.7578C53.9141 18.4349 53.875 19.0729 53.875 19.6719C53.875 20.2708 53.9141 20.9154 53.9922 21.6055C54.0703 22.2826 54.2005 22.9596 54.3828 23.6367C54.5651 24.3138 54.7995 24.9648 55.0859 25.5898C55.3854 26.2018 55.75 26.7487 56.1797 27.2305C56.6224 27.6992 57.1367 28.0768 57.7227 28.3633C58.3086 28.6497 58.9792 28.793 59.7344 28.793C60.5156 28.793 61.2057 28.6562 61.8047 28.3828C62.4036 28.0964 62.918 27.7188 63.3477 27.25C63.7904 26.7812 64.1549 26.2409 64.4414 25.6289C64.7279 25.0169 64.9557 24.3724 65.125 23.6953C65.3073 23.0182 65.431 22.3346 65.4961 21.6445C65.5742 20.9544 65.6133 20.2969 65.6133 19.6719ZM89.6367 18.7148H76.5117V15.1211H89.6367V18.7148ZM114.559 23.793C114.559 24.7826 114.415 25.6615 114.129 26.4297C113.842 27.1979 113.452 27.8685 112.957 28.4414C112.462 29.0013 111.876 29.4766 111.199 29.8672C110.522 30.2448 109.793 30.5508 109.012 30.7852C108.243 31.0195 107.436 31.1888 106.59 31.293C105.743 31.3971 104.904 31.4492 104.07 31.4492C102.951 31.4492 101.961 31.3776 101.102 31.2344C100.242 31.0911 99.4219 30.8633 98.6406 30.5508C97.8594 30.2253 97.0781 29.8086 96.2969 29.3008C95.5286 28.793 94.6693 28.1745 93.7188 27.4453L97.5664 24.3008C97.918 24.9648 98.3802 25.5703 98.9531 26.1172C99.5391 26.651 100.145 27.1133 100.77 27.5039C101.395 27.8945 102 28.194 102.586 28.4023C103.172 28.6107 103.647 28.7148 104.012 28.7148C104.311 28.7148 104.65 28.7083 105.027 28.6953C105.405 28.6693 105.789 28.6302 106.18 28.5781C106.57 28.513 106.954 28.4219 107.332 28.3047C107.71 28.1875 108.042 28.0312 108.328 27.8359C108.628 27.6276 108.862 27.3737 109.031 27.0742C109.214 26.7617 109.305 26.3906 109.305 25.9609C109.305 25.5182 109.188 25.1341 108.953 24.8086C108.732 24.4701 108.439 24.1771 108.074 23.9297C107.71 23.6823 107.293 23.474 106.824 23.3047C106.355 23.1354 105.88 22.9857 105.398 22.8555C104.93 22.7253 104.474 22.6146 104.031 22.5234C103.589 22.4193 103.204 22.3216 102.879 22.2305C102.28 22.0612 101.648 21.8919 100.984 21.7227C100.32 21.5404 99.6628 21.3385 99.0117 21.1172C98.3607 20.8828 97.7357 20.6094 97.1367 20.2969C96.5508 19.9844 96.0299 19.6133 95.5742 19.1836C95.1315 18.7409 94.7734 18.2266 94.5 17.6406C94.2396 17.0417 94.1094 16.3451 94.1094 15.5508C94.1094 14.0924 94.3958 12.875 94.9688 11.8984C95.5547 10.9089 96.3229 10.1211 97.2734 9.53516C98.224 8.9362 99.3047 8.51302 100.516 8.26562C101.727 8.01823 102.957 7.89453 104.207 7.89453C105.066 7.89453 105.971 7.98568 106.922 8.16797C107.872 8.33724 108.797 8.59766 109.695 8.94922C110.594 9.28776 111.434 9.70443 112.215 10.1992C112.996 10.694 113.647 11.2604 114.168 11.8984L110.32 15.0625C110.034 14.2812 109.656 13.6107 109.188 13.0508C108.732 12.4909 108.23 12.0352 107.684 11.6836C107.15 11.319 106.596 11.0521 106.023 10.8828C105.464 10.7135 104.943 10.6289 104.461 10.6289C103.992 10.6289 103.465 10.6484 102.879 10.6875C102.293 10.7266 101.74 10.8372 101.219 11.0195C100.711 11.2018 100.275 11.4818 99.9102 11.8594C99.5586 12.224 99.3828 12.7318 99.3828 13.3828C99.3828 13.8516 99.487 14.2552 99.6953 14.5938C99.9167 14.9193 100.203 15.2057 100.555 15.4531C100.906 15.6875 101.303 15.8893 101.746 16.0586C102.202 16.2148 102.664 16.3581 103.133 16.4883C103.602 16.6055 104.057 16.7096 104.5 16.8008C104.943 16.8919 105.34 16.9896 105.691 17.0938C106.29 17.263 106.922 17.4388 107.586 17.6211C108.263 17.7904 108.927 17.9922 109.578 18.2266C110.229 18.4479 110.854 18.7148 111.453 19.0273C112.065 19.3268 112.599 19.6979 113.055 20.1406C113.51 20.5833 113.875 21.1042 114.148 21.7031C114.422 22.2891 114.559 22.9857 114.559 23.793ZM142.723 19.6719C142.723 21.3125 142.475 22.849 141.98 24.2812C141.486 25.7135 140.77 26.9635 139.832 28.0312C138.895 29.0859 137.749 29.9193 136.395 30.5312C135.04 31.1432 133.504 31.4492 131.785 31.4492C130.47 31.4492 129.259 31.1953 128.152 30.6875C127.059 30.1667 126.121 29.3724 125.34 28.3047V41.4102H118.738V8.44141H121.277L124.207 13.3438C124.493 12.5234 124.884 11.7812 125.379 11.1172C125.887 10.4401 126.466 9.86719 127.117 9.39844C127.781 8.91667 128.504 8.54557 129.285 8.28516C130.079 8.02474 130.913 7.89453 131.785 7.89453C133.504 7.89453 135.04 8.20052 136.395 8.8125C137.749 9.42448 138.895 10.2643 139.832 11.332C140.77 12.3867 141.486 13.6302 141.98 15.0625C142.475 16.4948 142.723 18.0312 142.723 19.6719ZM136.023 19.6719C136.023 19.099 135.991 18.4935 135.926 17.8555C135.874 17.2044 135.776 16.5599 135.633 15.9219C135.49 15.2839 135.288 14.6719 135.027 14.0859C134.78 13.5 134.461 12.9857 134.07 12.543C133.68 12.0872 133.204 11.7292 132.645 11.4688C132.098 11.1953 131.46 11.0586 130.73 11.0586C129.975 11.0586 129.318 11.1888 128.758 11.4492C128.211 11.7096 127.736 12.0677 127.332 12.5234C126.941 12.9661 126.616 13.4805 126.355 14.0664C126.108 14.6393 125.913 15.2448 125.77 15.8828C125.626 16.5208 125.522 17.1654 125.457 17.8164C125.405 18.4674 125.379 19.0859 125.379 19.6719C125.379 20.1927 125.418 20.7721 125.496 21.4102C125.574 22.0352 125.698 22.6667 125.867 23.3047C126.036 23.9427 126.258 24.5612 126.531 25.1602C126.805 25.7591 127.137 26.293 127.527 26.7617C127.931 27.2305 128.393 27.6081 128.914 27.8945C129.448 28.168 130.053 28.3047 130.73 28.3047C131.473 28.3047 132.117 28.1745 132.664 27.9141C133.211 27.6406 133.68 27.2826 134.07 26.8398C134.461 26.3841 134.78 25.8633 135.027 25.2773C135.288 24.6914 135.49 24.0794 135.633 23.4414C135.776 22.8034 135.874 22.1589 135.926 21.5078C135.991 20.8568 136.023 20.2448 136.023 19.6719ZM170.809 19.6719C170.809 20.8438 170.652 21.944 170.34 22.9727C170.027 24.0013 169.591 24.9518 169.031 25.8242C168.484 26.6966 167.82 27.4844 167.039 28.1875C166.258 28.8776 165.398 29.4635 164.461 29.9453C163.536 30.4271 162.54 30.7982 161.473 31.0586C160.418 31.319 159.331 31.4492 158.211 31.4492C157.091 31.4492 156.004 31.319 154.949 31.0586C153.895 30.7982 152.898 30.4271 151.961 29.9453C151.036 29.4635 150.184 28.8776 149.402 28.1875C148.621 27.4844 147.951 26.6966 147.391 25.8242C146.844 24.9518 146.414 24.0013 146.102 22.9727C145.789 21.931 145.633 20.8307 145.633 19.6719C145.633 18.513 145.789 17.4193 146.102 16.3906C146.414 15.349 146.844 14.3919 147.391 13.5195C147.951 12.6471 148.621 11.8659 149.402 11.1758C150.184 10.4727 151.036 9.88021 151.961 9.39844C152.898 8.91667 153.895 8.54557 154.949 8.28516C156.004 8.02474 157.091 7.89453 158.211 7.89453C159.331 7.89453 160.418 8.02474 161.473 8.28516C162.54 8.54557 163.536 8.91667 164.461 9.39844C165.398 9.88021 166.258 10.4727 167.039 11.1758C167.82 11.8659 168.484 12.6471 169.031 13.5195C169.591 14.3919 170.027 15.349 170.34 16.3906C170.652 17.4193 170.809 18.513 170.809 19.6719ZM164.09 19.6719C164.09 19.0469 164.051 18.3893 163.973 17.6992C163.908 16.9961 163.79 16.3125 163.621 15.6484C163.452 14.9714 163.217 14.3268 162.918 13.7148C162.632 13.0898 162.273 12.5495 161.844 12.0938C161.414 11.625 160.9 11.2539 160.301 10.9805C159.702 10.694 159.005 10.5508 158.211 10.5508C157.456 10.5508 156.785 10.694 156.199 10.9805C155.613 11.2669 155.099 11.651 154.656 12.1328C154.227 12.6016 153.862 13.1484 153.562 13.7734C153.276 14.3984 153.042 15.0495 152.859 15.7266C152.677 16.3906 152.547 17.0677 152.469 17.7578C152.391 18.4349 152.352 19.0729 152.352 19.6719C152.352 20.2708 152.391 20.9154 152.469 21.6055C152.547 22.2826 152.677 22.9596 152.859 23.6367C153.042 24.3138 153.276 24.9648 153.562 25.5898C153.862 26.2018 154.227 26.7487 154.656 27.2305C155.099 27.6992 155.613 28.0768 156.199 28.3633C156.785 28.6497 157.456 28.793 158.211 28.793C158.992 28.793 159.682 28.6562 160.281 28.3828C160.88 28.0964 161.395 27.7188 161.824 27.25C162.267 26.7812 162.632 26.2409 162.918 25.6289C163.204 25.0169 163.432 24.3724 163.602 23.6953C163.784 23.0182 163.908 22.3346 163.973 21.6445C164.051 20.9544 164.09 20.2969 164.09 19.6719ZM194.168 10.4336L190.457 16.5859C190.301 16.0651 190.099 15.4792 189.852 14.8281C189.604 14.1771 189.298 13.5716 188.934 13.0117C188.569 12.4388 188.133 11.9635 187.625 11.5859C187.117 11.1953 186.531 11 185.867 11C185.255 11 184.721 11.1562 184.266 11.4688C183.823 11.7812 183.445 12.1914 183.133 12.6992C182.82 13.194 182.56 13.7604 182.352 14.3984C182.156 15.0234 182 15.6615 181.883 16.3125C181.779 16.9505 181.707 17.569 181.668 18.168C181.629 18.7539 181.609 19.2617 181.609 19.6914V31H174.988V8.44141H177.527L180.203 13.6953C180.568 12.849 180.984 12.0742 181.453 11.3711C181.922 10.6549 182.462 10.043 183.074 9.53516C183.686 9.01432 184.376 8.61068 185.145 8.32422C185.926 8.03776 186.805 7.89453 187.781 7.89453C188.289 7.89453 188.855 7.9401 189.48 8.03125C190.105 8.10938 190.717 8.2526 191.316 8.46094C191.915 8.65625 192.469 8.91667 192.977 9.24219C193.484 9.56771 193.882 9.96484 194.168 10.4336ZM205.438 31H198.816V11.0586H194.715V8.44141H198.816V0.140625H205.438V8.44141H212.273V11.0586H205.438V31Z" fill="#052734"/>
</svg>
