<svg width="71" height="17" viewBox="0 0 71 17" fill="none" xmlns="http://www.w3.org/2000/svg">
<path d="M8.67676 11.251V13H1.88281V11.251H8.67676ZM2.50684 0.203125V13H0.300781V0.203125H2.50684ZM7.78906 5.54688V7.26953H1.88281V5.54688H7.78906ZM8.63281 0.203125V1.96094H1.88281V0.203125H8.63281ZM13.9766 11.4883C14.3223 11.4883 14.6328 11.4209 14.9082 11.2861C15.1895 11.1455 15.415 10.9521 15.585 10.7061C15.7607 10.46 15.8574 10.1758 15.875 9.85352H17.8701C17.8584 10.4688 17.6768 11.0283 17.3252 11.5322C16.9736 12.0361 16.5078 12.4375 15.9277 12.7363C15.3477 13.0293 14.7061 13.1758 14.0029 13.1758C13.2764 13.1758 12.6436 13.0527 12.1045 12.8066C11.5654 12.5547 11.1172 12.209 10.7598 11.7695C10.4023 11.3301 10.1328 10.8232 9.95117 10.249C9.77539 9.6748 9.6875 9.05957 9.6875 8.40332V8.0957C9.6875 7.43945 9.77539 6.82422 9.95117 6.25C10.1328 5.66992 10.4023 5.16016 10.7598 4.7207C11.1172 4.28125 11.5654 3.93848 12.1045 3.69238C12.6436 3.44043 13.2734 3.31445 13.9941 3.31445C14.7559 3.31445 15.4238 3.4668 15.998 3.77148C16.5723 4.07031 17.0234 4.48926 17.3516 5.02832C17.6855 5.56152 17.8584 6.18262 17.8701 6.8916H15.875C15.8574 6.54004 15.7695 6.22363 15.6113 5.94238C15.459 5.65527 15.2422 5.42676 14.9609 5.25684C14.6855 5.08691 14.3545 5.00195 13.9678 5.00195C13.54 5.00195 13.1855 5.08984 12.9043 5.26562C12.623 5.43555 12.4033 5.66992 12.2451 5.96875C12.0869 6.26172 11.9727 6.59277 11.9023 6.96191C11.8379 7.3252 11.8057 7.70312 11.8057 8.0957V8.40332C11.8057 8.7959 11.8379 9.17676 11.9023 9.5459C11.9668 9.91504 12.0781 10.2461 12.2363 10.5391C12.4004 10.8262 12.623 11.0576 12.9043 11.2334C13.1855 11.4033 13.543 11.4883 13.9766 11.4883ZM19.0918 8.35059V8.14844C19.0918 7.46289 19.1914 6.82715 19.3906 6.24121C19.5898 5.64941 19.877 5.13672 20.252 4.70312C20.6328 4.26367 21.0957 3.92383 21.6406 3.68359C22.1914 3.4375 22.8125 3.31445 23.5039 3.31445C24.2012 3.31445 24.8223 3.4375 25.3672 3.68359C25.918 3.92383 26.3838 4.26367 26.7646 4.70312C27.1455 5.13672 27.4355 5.64941 27.6348 6.24121C27.834 6.82715 27.9336 7.46289 27.9336 8.14844V8.35059C27.9336 9.03613 27.834 9.67188 27.6348 10.2578C27.4355 10.8438 27.1455 11.3564 26.7646 11.7959C26.3838 12.2295 25.9209 12.5693 25.376 12.8154C24.8311 13.0557 24.2129 13.1758 23.5215 13.1758C22.8242 13.1758 22.2002 13.0557 21.6494 12.8154C21.1045 12.5693 20.6416 12.2295 20.2607 11.7959C19.8799 11.3564 19.5898 10.8438 19.3906 10.2578C19.1914 9.67188 19.0918 9.03613 19.0918 8.35059ZM21.21 8.14844V8.35059C21.21 8.77832 21.2539 9.18262 21.3418 9.56348C21.4297 9.94434 21.5674 10.2783 21.7549 10.5654C21.9424 10.8525 22.1826 11.0781 22.4756 11.2422C22.7686 11.4062 23.1172 11.4883 23.5215 11.4883C23.9141 11.4883 24.2539 11.4062 24.541 11.2422C24.834 11.0781 25.0742 10.8525 25.2617 10.5654C25.4492 10.2783 25.5869 9.94434 25.6748 9.56348C25.7686 9.18262 25.8154 8.77832 25.8154 8.35059V8.14844C25.8154 7.72656 25.7686 7.32812 25.6748 6.95312C25.5869 6.57227 25.4463 6.23535 25.2529 5.94238C25.0654 5.64941 24.8252 5.4209 24.5322 5.25684C24.2451 5.08691 23.9023 5.00195 23.5039 5.00195C23.1055 5.00195 22.7598 5.08691 22.4668 5.25684C22.1797 5.4209 21.9424 5.64941 21.7549 5.94238C21.5674 6.23535 21.4297 6.57227 21.3418 6.95312C21.2539 7.32812 21.21 7.72656 21.21 8.14844ZM35.0439 10.4248C35.0439 10.2139 34.9912 10.0234 34.8857 9.85352C34.7803 9.67773 34.5781 9.51953 34.2793 9.37891C33.9863 9.23828 33.5527 9.10938 32.9785 8.99219C32.4746 8.88086 32.0117 8.74902 31.5898 8.59668C31.1738 8.43848 30.8164 8.24805 30.5176 8.02539C30.2188 7.80273 29.9873 7.53906 29.8232 7.23438C29.6592 6.92969 29.5771 6.57812 29.5771 6.17969C29.5771 5.79297 29.6621 5.42676 29.832 5.08105C30.002 4.73535 30.2451 4.43066 30.5615 4.16699C30.8779 3.90332 31.2617 3.69531 31.7129 3.54297C32.1699 3.39062 32.6797 3.31445 33.2422 3.31445C34.0391 3.31445 34.7217 3.44922 35.29 3.71875C35.8643 3.98242 36.3037 4.34277 36.6084 4.7998C36.9131 5.25098 37.0654 5.76074 37.0654 6.3291H34.9473C34.9473 6.07715 34.8828 5.84277 34.7539 5.62598C34.6309 5.40332 34.4434 5.22461 34.1914 5.08984C33.9395 4.94922 33.623 4.87891 33.2422 4.87891C32.8789 4.87891 32.5771 4.9375 32.3369 5.05469C32.1025 5.16602 31.9268 5.3125 31.8096 5.49414C31.6982 5.67578 31.6426 5.875 31.6426 6.0918C31.6426 6.25 31.6719 6.39355 31.7305 6.52246C31.7949 6.64551 31.9004 6.75977 32.0469 6.86523C32.1934 6.96484 32.3926 7.05859 32.6445 7.14648C32.9023 7.23438 33.2246 7.31934 33.6113 7.40137C34.3379 7.55371 34.9619 7.75 35.4834 7.99023C36.0107 8.22461 36.415 8.5293 36.6963 8.9043C36.9775 9.27344 37.1182 9.74219 37.1182 10.3105C37.1182 10.7324 37.0273 11.1191 36.8457 11.4707C36.6699 11.8164 36.4121 12.1182 36.0723 12.376C35.7324 12.6279 35.3252 12.8242 34.8506 12.9648C34.3818 13.1055 33.8545 13.1758 33.2686 13.1758C32.4072 13.1758 31.6777 13.0234 31.0801 12.7188C30.4824 12.4082 30.0283 12.0127 29.7178 11.5322C29.4131 11.0459 29.2607 10.542 29.2607 10.0205H31.3086C31.332 10.4131 31.4404 10.7266 31.6338 10.9609C31.833 11.1895 32.0791 11.3564 32.3721 11.4619C32.6709 11.5615 32.9785 11.6113 33.2949 11.6113C33.6758 11.6113 33.9951 11.5615 34.2529 11.4619C34.5107 11.3564 34.707 11.2158 34.8418 11.04C34.9766 10.8584 35.0439 10.6533 35.0439 10.4248ZM41.0996 5.31836V16.6562H38.9814V3.49023H40.9326L41.0996 5.31836ZM47.2959 8.15723V8.3418C47.2959 9.0332 47.2139 9.6748 47.0498 10.2666C46.8916 10.8525 46.6543 11.3652 46.3379 11.8047C46.0273 12.2383 45.6436 12.5752 45.1865 12.8154C44.7295 13.0557 44.2021 13.1758 43.6045 13.1758C43.0127 13.1758 42.4941 13.0674 42.0488 12.8506C41.6094 12.6279 41.2373 12.3145 40.9326 11.9102C40.6279 11.5059 40.3818 11.0312 40.1943 10.4863C40.0127 9.93555 39.8838 9.33203 39.8076 8.67578V7.96387C39.8838 7.2666 40.0127 6.63379 40.1943 6.06543C40.3818 5.49707 40.6279 5.00781 40.9326 4.59766C41.2373 4.1875 41.6094 3.87109 42.0488 3.64844C42.4883 3.42578 43.001 3.31445 43.5869 3.31445C44.1846 3.31445 44.7148 3.43164 45.1777 3.66602C45.6406 3.89453 46.0303 4.22266 46.3467 4.65039C46.6631 5.07227 46.9004 5.58203 47.0586 6.17969C47.2168 6.77148 47.2959 7.43066 47.2959 8.15723ZM45.1777 8.3418V8.15723C45.1777 7.71777 45.1367 7.31055 45.0547 6.93555C44.9727 6.55469 44.8438 6.2207 44.668 5.93359C44.4922 5.64648 44.2666 5.42383 43.9912 5.26562C43.7217 5.10156 43.3965 5.01953 43.0156 5.01953C42.6406 5.01953 42.3184 5.08398 42.0488 5.21289C41.7793 5.33594 41.5537 5.50879 41.3721 5.73145C41.1904 5.9541 41.0498 6.21484 40.9502 6.51367C40.8506 6.80664 40.7803 7.12598 40.7393 7.47168V9.17676C40.8096 9.59863 40.9297 9.98535 41.0996 10.3369C41.2695 10.6885 41.5098 10.9697 41.8203 11.1807C42.1367 11.3857 42.541 11.4883 43.0332 11.4883C43.4141 11.4883 43.7393 11.4062 44.0088 11.2422C44.2783 11.0781 44.498 10.8525 44.668 10.5654C44.8438 10.2725 44.9727 9.93555 45.0547 9.55469C45.1367 9.17383 45.1777 8.76953 45.1777 8.3418ZM48.6934 8.35059V8.14844C48.6934 7.46289 48.793 6.82715 48.9922 6.24121C49.1914 5.64941 49.4785 5.13672 49.8535 4.70312C50.2344 4.26367 50.6973 3.92383 51.2422 3.68359C51.793 3.4375 52.4141 3.31445 53.1055 3.31445C53.8027 3.31445 54.4238 3.4375 54.9688 3.68359C55.5195 3.92383 55.9854 4.26367 56.3662 4.70312C56.7471 5.13672 57.0371 5.64941 57.2363 6.24121C57.4355 6.82715 57.5352 7.46289 57.5352 8.14844V8.35059C57.5352 9.03613 57.4355 9.67188 57.2363 10.2578C57.0371 10.8438 56.7471 11.3564 56.3662 11.7959C55.9854 12.2295 55.5225 12.5693 54.9775 12.8154C54.4326 13.0557 53.8145 13.1758 53.123 13.1758C52.4258 13.1758 51.8018 13.0557 51.251 12.8154C50.7061 12.5693 50.2432 12.2295 49.8623 11.7959C49.4814 11.3564 49.1914 10.8438 48.9922 10.2578C48.793 9.67188 48.6934 9.03613 48.6934 8.35059ZM50.8115 8.14844V8.35059C50.8115 8.77832 50.8555 9.18262 50.9434 9.56348C51.0312 9.94434 51.1689 10.2783 51.3564 10.5654C51.5439 10.8525 51.7842 11.0781 52.0771 11.2422C52.3701 11.4062 52.7188 11.4883 53.123 11.4883C53.5156 11.4883 53.8555 11.4062 54.1426 11.2422C54.4355 11.0781 54.6758 10.8525 54.8633 10.5654C55.0508 10.2783 55.1885 9.94434 55.2764 9.56348C55.3701 9.18262 55.417 8.77832 55.417 8.35059V8.14844C55.417 7.72656 55.3701 7.32812 55.2764 6.95312C55.1885 6.57227 55.0479 6.23535 54.8545 5.94238C54.667 5.64941 54.4268 5.4209 54.1338 5.25684C53.8467 5.08691 53.5039 5.00195 53.1055 5.00195C52.707 5.00195 52.3613 5.08691 52.0684 5.25684C51.7812 5.4209 51.5439 5.64941 51.3564 5.94238C51.1689 6.23535 51.0312 6.57227 50.9434 6.95312C50.8555 7.32812 50.8115 7.72656 50.8115 8.14844ZM61.4375 5.30078V13H59.3193V3.49023H61.3408L61.4375 5.30078ZM64.3467 3.42871L64.3291 5.39746C64.2002 5.37402 64.0596 5.35645 63.9072 5.34473C63.7607 5.33301 63.6143 5.32715 63.4678 5.32715C63.1045 5.32715 62.7852 5.37988 62.5098 5.48535C62.2344 5.58496 62.0029 5.73145 61.8154 5.9248C61.6338 6.1123 61.4932 6.34082 61.3936 6.61035C61.2939 6.87988 61.2354 7.18164 61.2178 7.51562L60.7344 7.55078C60.7344 6.95312 60.793 6.39941 60.9102 5.88965C61.0273 5.37988 61.2031 4.93164 61.4375 4.54492C61.6777 4.1582 61.9766 3.85645 62.334 3.63965C62.6973 3.42285 63.1162 3.31445 63.5908 3.31445C63.7197 3.31445 63.8574 3.32617 64.0039 3.34961C64.1562 3.37305 64.2705 3.39941 64.3467 3.42871ZM70.4727 3.49023V5.03711H65.1113V3.49023H70.4727ZM66.6582 1.16113H68.7764V10.3721C68.7764 10.665 68.8174 10.8906 68.8994 11.0488C68.9873 11.2012 69.1074 11.3037 69.2598 11.3564C69.4121 11.4092 69.5908 11.4355 69.7959 11.4355C69.9424 11.4355 70.083 11.4268 70.2178 11.4092C70.3525 11.3916 70.4609 11.374 70.543 11.3564L70.5518 12.9736C70.376 13.0264 70.1709 13.0732 69.9365 13.1143C69.708 13.1553 69.4443 13.1758 69.1455 13.1758C68.6592 13.1758 68.2285 13.0908 67.8535 12.9209C67.4785 12.7451 67.1855 12.4609 66.9746 12.0684C66.7637 11.6758 66.6582 11.1543 66.6582 10.5039V1.16113Z" fill="#052734"/>
</svg>
