<svg width="1440" height="154" viewBox="0 0 1440 154" fill="none" xmlns="http://www.w3.org/2000/svg">
<rect width="1440" height="154" fill="#F7F7F7"/>
<line x1="570.997" y1="56.5" x2="935.003" y2="56.5" stroke="black"/>
<line x1="944.997" y1="56.5" x2="1309" y2="56.5" stroke="black"/>
<path d="M95.041 71H76.8652V45.6875H95.041V48.9219H83.8438V56.7441H92.4922V59.9609H83.8438V67.7656H95.041V71ZM116.838 55.7246L114.271 56.7441C113.861 55.4551 113.176 54.4648 112.215 53.7734C111.254 53.082 110.1 52.7363 108.752 52.7363C108.025 52.7363 107.375 52.8535 106.801 53.0879C106.238 53.3105 105.74 53.6211 105.307 54.0195C104.885 54.418 104.521 54.8809 104.217 55.4082C103.924 55.9355 103.684 56.498 103.496 57.0957C103.309 57.6934 103.174 58.3145 103.092 58.959C103.01 59.5918 102.969 60.207 102.969 60.8047C102.969 61.4492 103.004 62.0996 103.074 62.7559C103.145 63.4121 103.262 64.0449 103.426 64.6543C103.602 65.252 103.83 65.8145 104.111 66.3418C104.393 66.8574 104.744 67.3086 105.166 67.6953C105.6 68.082 106.109 68.3867 106.695 68.6094C107.293 68.832 107.979 68.9434 108.752 68.9434C109.373 68.9434 109.965 68.8496 110.527 68.6621C111.09 68.4746 111.605 68.2109 112.074 67.8711C112.543 67.5312 112.959 67.127 113.322 66.6582C113.686 66.1895 113.973 65.668 114.184 65.0938L116.768 66.043C116.381 66.9688 115.865 67.7715 115.221 68.4512C114.588 69.1191 113.867 69.6758 113.059 70.1211C112.25 70.5547 111.383 70.877 110.457 71.0879C109.531 71.2988 108.594 71.4043 107.645 71.4043C106.109 71.4043 104.686 71.1465 103.373 70.6309C102.061 70.1035 100.924 69.3711 99.9629 68.4336C99.0137 67.4844 98.2695 66.3652 97.7305 65.0762C97.1914 63.7754 96.9219 62.3516 96.9219 60.8047C96.9219 59.2461 97.1855 57.8164 97.7129 56.5156C98.252 55.2148 98.9961 54.0957 99.9453 53.1582C100.895 52.2207 102.025 51.4941 103.338 50.9785C104.65 50.4629 106.086 50.2051 107.645 50.2051C108.629 50.2051 109.59 50.3164 110.527 50.5391C111.465 50.75 112.332 51.084 113.129 51.541C113.938 51.9863 114.658 52.5547 115.291 53.2461C115.936 53.9375 116.451 54.7637 116.838 55.7246ZM141.799 60.8047C141.799 61.8594 141.658 62.8496 141.377 63.7754C141.096 64.7012 140.703 65.5566 140.199 66.3418C139.707 67.127 139.109 67.8359 138.406 68.4688C137.703 69.0898 136.93 69.6172 136.086 70.0508C135.254 70.4844 134.357 70.8184 133.396 71.0527C132.447 71.2871 131.469 71.4043 130.461 71.4043C129.453 71.4043 128.475 71.2871 127.525 71.0527C126.576 70.8184 125.68 70.4844 124.836 70.0508C124.004 69.6172 123.236 69.0898 122.533 68.4688C121.83 67.8359 121.227 67.127 120.723 66.3418C120.23 65.5566 119.844 64.7012 119.562 63.7754C119.281 62.8379 119.141 61.8477 119.141 60.8047C119.141 59.7617 119.281 58.7773 119.562 57.8516C119.844 56.9141 120.23 56.0527 120.723 55.2676C121.227 54.4824 121.83 53.7793 122.533 53.1582C123.236 52.5254 124.004 51.9922 124.836 51.5586C125.68 51.125 126.576 50.791 127.525 50.5566C128.475 50.3223 129.453 50.2051 130.461 50.2051C131.469 50.2051 132.447 50.3223 133.396 50.5566C134.357 50.791 135.254 51.125 136.086 51.5586C136.93 51.9922 137.703 52.5254 138.406 53.1582C139.109 53.7793 139.707 54.4824 140.199 55.2676C140.703 56.0527 141.096 56.9141 141.377 57.8516C141.658 58.7773 141.799 59.7617 141.799 60.8047ZM135.752 60.8047C135.752 60.2422 135.717 59.6504 135.646 59.0293C135.588 58.3965 135.482 57.7812 135.33 57.1836C135.178 56.5742 134.967 55.9941 134.697 55.4434C134.439 54.8809 134.117 54.3945 133.73 53.9844C133.344 53.5625 132.881 53.2285 132.342 52.9824C131.803 52.7246 131.176 52.5957 130.461 52.5957C129.781 52.5957 129.178 52.7246 128.65 52.9824C128.123 53.2402 127.66 53.5859 127.262 54.0195C126.875 54.4414 126.547 54.9336 126.277 55.4961C126.02 56.0586 125.809 56.6445 125.645 57.2539C125.48 57.8516 125.363 58.4609 125.293 59.082C125.223 59.6914 125.188 60.2656 125.188 60.8047C125.188 61.3438 125.223 61.9238 125.293 62.5449C125.363 63.1543 125.48 63.7637 125.645 64.373C125.809 64.9824 126.02 65.5684 126.277 66.1309C126.547 66.6816 126.875 67.1738 127.262 67.6074C127.66 68.0293 128.123 68.3691 128.65 68.627C129.178 68.8848 129.781 69.0137 130.461 69.0137C131.164 69.0137 131.785 68.8906 132.324 68.6445C132.863 68.3867 133.326 68.0469 133.713 67.625C134.111 67.2031 134.439 66.7168 134.697 66.166C134.955 65.6152 135.16 65.0352 135.312 64.4258C135.477 63.8164 135.588 63.2012 135.646 62.5801C135.717 61.959 135.752 61.3672 135.752 60.8047ZM157.373 59.9434H145.561V56.709H157.373V59.9434ZM179.803 64.5137C179.803 65.4043 179.674 66.1953 179.416 66.8867C179.158 67.5781 178.807 68.1816 178.361 68.6973C177.916 69.2012 177.389 69.6289 176.779 69.9805C176.17 70.3203 175.514 70.5957 174.811 70.8066C174.119 71.0176 173.393 71.1699 172.631 71.2637C171.869 71.3574 171.113 71.4043 170.363 71.4043C169.355 71.4043 168.465 71.3398 167.691 71.2109C166.918 71.082 166.18 70.877 165.477 70.5957C164.773 70.3027 164.07 69.9277 163.367 69.4707C162.676 69.0137 161.902 68.457 161.047 67.8008L164.51 64.9707C164.826 65.5684 165.242 66.1133 165.758 66.6055C166.285 67.0859 166.83 67.502 167.393 67.8535C167.955 68.2051 168.5 68.4746 169.027 68.6621C169.555 68.8496 169.982 68.9434 170.311 68.9434C170.58 68.9434 170.885 68.9375 171.225 68.9258C171.564 68.9023 171.91 68.8672 172.262 68.8203C172.613 68.7617 172.959 68.6797 173.299 68.5742C173.639 68.4688 173.938 68.3281 174.195 68.1523C174.465 67.9648 174.676 67.7363 174.828 67.4668C174.992 67.1855 175.074 66.8516 175.074 66.4648C175.074 66.0664 174.969 65.7207 174.758 65.4277C174.559 65.123 174.295 64.8594 173.967 64.6367C173.639 64.4141 173.264 64.2266 172.842 64.0742C172.42 63.9219 171.992 63.7871 171.559 63.6699C171.137 63.5527 170.727 63.4531 170.328 63.3711C169.93 63.2773 169.584 63.1895 169.291 63.1074C168.752 62.9551 168.184 62.8027 167.586 62.6504C166.988 62.4863 166.396 62.3047 165.811 62.1055C165.225 61.8945 164.662 61.6484 164.123 61.3672C163.596 61.0859 163.127 60.752 162.717 60.3652C162.318 59.9668 161.996 59.5039 161.75 58.9766C161.516 58.4375 161.398 57.8105 161.398 57.0957C161.398 55.7832 161.656 54.6875 162.172 53.8086C162.699 52.918 163.391 52.209 164.246 51.6816C165.102 51.1426 166.074 50.7617 167.164 50.5391C168.254 50.3164 169.361 50.2051 170.486 50.2051C171.26 50.2051 172.074 50.2871 172.93 50.4512C173.785 50.6035 174.617 50.8379 175.426 51.1543C176.234 51.459 176.99 51.834 177.693 52.2793C178.396 52.7246 178.982 53.2344 179.451 53.8086L175.988 56.6562C175.73 55.9531 175.391 55.3496 174.969 54.8457C174.559 54.3418 174.107 53.9316 173.615 53.6152C173.135 53.2871 172.637 53.0469 172.121 52.8945C171.617 52.7422 171.148 52.666 170.715 52.666C170.293 52.666 169.818 52.6836 169.291 52.7188C168.764 52.7539 168.266 52.8535 167.797 53.0176C167.34 53.1816 166.947 53.4336 166.619 53.7734C166.303 54.1016 166.145 54.5586 166.145 55.1445C166.145 55.5664 166.238 55.9297 166.426 56.2344C166.625 56.5273 166.883 56.7852 167.199 57.0078C167.516 57.2188 167.873 57.4004 168.271 57.5527C168.682 57.6934 169.098 57.8223 169.52 57.9395C169.941 58.0449 170.352 58.1387 170.75 58.2207C171.148 58.3027 171.506 58.3906 171.822 58.4844C172.361 58.6367 172.93 58.7949 173.527 58.959C174.137 59.1113 174.734 59.293 175.32 59.5039C175.906 59.7031 176.469 59.9434 177.008 60.2246C177.559 60.4941 178.039 60.8281 178.449 61.2266C178.859 61.625 179.188 62.0938 179.434 62.6328C179.68 63.1602 179.803 63.7871 179.803 64.5137ZM205.15 60.8047C205.15 62.2812 204.928 63.6641 204.482 64.9531C204.037 66.2422 203.393 67.3672 202.549 68.3281C201.705 69.2773 200.674 70.0273 199.455 70.5781C198.236 71.1289 196.854 71.4043 195.307 71.4043C194.123 71.4043 193.033 71.1758 192.037 70.7188C191.053 70.25 190.209 69.5352 189.506 68.5742V80.3691H183.564V50.6973H185.85L188.486 55.1094C188.744 54.3711 189.096 53.7031 189.541 53.1055C189.998 52.4961 190.52 51.9805 191.105 51.5586C191.703 51.125 192.354 50.791 193.057 50.5566C193.771 50.3223 194.521 50.2051 195.307 50.2051C196.854 50.2051 198.236 50.4805 199.455 51.0312C200.674 51.582 201.705 52.3379 202.549 53.2988C203.393 54.248 204.037 55.3672 204.482 56.6562C204.928 57.9453 205.15 59.3281 205.15 60.8047ZM199.121 60.8047C199.121 60.2891 199.092 59.7441 199.033 59.1699C198.986 58.584 198.898 58.0039 198.77 57.4297C198.641 56.8555 198.459 56.3047 198.225 55.7773C198.002 55.25 197.715 54.7871 197.363 54.3887C197.012 53.9785 196.584 53.6562 196.08 53.4219C195.588 53.1758 195.014 53.0527 194.357 53.0527C193.678 53.0527 193.086 53.1699 192.582 53.4043C192.09 53.6387 191.662 53.9609 191.299 54.3711C190.947 54.7695 190.654 55.2324 190.42 55.7598C190.197 56.2754 190.021 56.8203 189.893 57.3945C189.764 57.9688 189.67 58.5488 189.611 59.1348C189.564 59.7207 189.541 60.2773 189.541 60.8047C189.541 61.2734 189.576 61.7949 189.646 62.3691C189.717 62.9316 189.828 63.5 189.98 64.0742C190.133 64.6484 190.332 65.2051 190.578 65.7441C190.824 66.2832 191.123 66.7637 191.475 67.1855C191.838 67.6074 192.254 67.9473 192.723 68.2051C193.203 68.4512 193.748 68.5742 194.357 68.5742C195.025 68.5742 195.605 68.457 196.098 68.2227C196.59 67.9766 197.012 67.6543 197.363 67.2559C197.715 66.8457 198.002 66.377 198.225 65.8496C198.459 65.3223 198.641 64.7715 198.77 64.1973C198.898 63.623 198.986 63.043 199.033 62.457C199.092 61.8711 199.121 61.3203 199.121 60.8047ZM230.428 60.8047C230.428 61.8594 230.287 62.8496 230.006 63.7754C229.725 64.7012 229.332 65.5566 228.828 66.3418C228.336 67.127 227.738 67.8359 227.035 68.4688C226.332 69.0898 225.559 69.6172 224.715 70.0508C223.883 70.4844 222.986 70.8184 222.025 71.0527C221.076 71.2871 220.098 71.4043 219.09 71.4043C218.082 71.4043 217.104 71.2871 216.154 71.0527C215.205 70.8184 214.309 70.4844 213.465 70.0508C212.633 69.6172 211.865 69.0898 211.162 68.4688C210.459 67.8359 209.855 67.127 209.352 66.3418C208.859 65.5566 208.473 64.7012 208.191 63.7754C207.91 62.8379 207.77 61.8477 207.77 60.8047C207.77 59.7617 207.91 58.7773 208.191 57.8516C208.473 56.9141 208.859 56.0527 209.352 55.2676C209.855 54.4824 210.459 53.7793 211.162 53.1582C211.865 52.5254 212.633 51.9922 213.465 51.5586C214.309 51.125 215.205 50.791 216.154 50.5566C217.104 50.3223 218.082 50.2051 219.09 50.2051C220.098 50.2051 221.076 50.3223 222.025 50.5566C222.986 50.791 223.883 51.125 224.715 51.5586C225.559 51.9922 226.332 52.5254 227.035 53.1582C227.738 53.7793 228.336 54.4824 228.828 55.2676C229.332 56.0527 229.725 56.9141 230.006 57.8516C230.287 58.7773 230.428 59.7617 230.428 60.8047ZM224.381 60.8047C224.381 60.2422 224.346 59.6504 224.275 59.0293C224.217 58.3965 224.111 57.7812 223.959 57.1836C223.807 56.5742 223.596 55.9941 223.326 55.4434C223.068 54.8809 222.746 54.3945 222.359 53.9844C221.973 53.5625 221.51 53.2285 220.971 52.9824C220.432 52.7246 219.805 52.5957 219.09 52.5957C218.41 52.5957 217.807 52.7246 217.279 52.9824C216.752 53.2402 216.289 53.5859 215.891 54.0195C215.504 54.4414 215.176 54.9336 214.906 55.4961C214.648 56.0586 214.438 56.6445 214.273 57.2539C214.109 57.8516 213.992 58.4609 213.922 59.082C213.852 59.6914 213.816 60.2656 213.816 60.8047C213.816 61.3438 213.852 61.9238 213.922 62.5449C213.992 63.1543 214.109 63.7637 214.273 64.373C214.438 64.9824 214.648 65.5684 214.906 66.1309C215.176 66.6816 215.504 67.1738 215.891 67.6074C216.289 68.0293 216.752 68.3691 217.279 68.627C217.807 68.8848 218.41 69.0137 219.09 69.0137C219.793 69.0137 220.414 68.8906 220.953 68.6445C221.492 68.3867 221.955 68.0469 222.342 67.625C222.74 67.2031 223.068 66.7168 223.326 66.166C223.584 65.6152 223.789 65.0352 223.941 64.4258C224.105 63.8164 224.217 63.2012 224.275 62.5801C224.346 61.959 224.381 61.3672 224.381 60.8047ZM251.451 52.4902L248.111 58.0273C247.971 57.5586 247.789 57.0312 247.566 56.4453C247.344 55.8594 247.068 55.3145 246.74 54.8105C246.412 54.2949 246.02 53.8672 245.562 53.5273C245.105 53.1758 244.578 53 243.98 53C243.43 53 242.949 53.1406 242.539 53.4219C242.141 53.7031 241.801 54.0723 241.52 54.5293C241.238 54.9746 241.004 55.4844 240.816 56.0586C240.641 56.6211 240.5 57.1953 240.395 57.7812C240.301 58.3555 240.236 58.9121 240.201 59.4512C240.166 59.9785 240.148 60.4355 240.148 60.8223V71H234.189V50.6973H236.475L238.883 55.4258C239.211 54.6641 239.586 53.9668 240.008 53.334C240.43 52.6895 240.916 52.1387 241.467 51.6816C242.018 51.2129 242.639 50.8496 243.33 50.5918C244.033 50.334 244.824 50.2051 245.703 50.2051C246.16 50.2051 246.67 50.2461 247.232 50.3281C247.795 50.3984 248.346 50.5273 248.885 50.7148C249.424 50.8906 249.922 51.125 250.379 51.418C250.836 51.7109 251.193 52.0684 251.451 52.4902ZM261.594 71H255.635V53.0527H251.943V50.6973H255.635V43.2266H261.594V50.6973H267.746V53.0527H261.594V71Z" fill="#052734"/>
<circle cx="555" cy="56" r="16" fill="#052734"/>
<path d="M510.727 108H507.047L507.07 105.469H510.727C511.719 105.469 512.551 105.25 513.223 104.812C513.895 104.367 514.402 103.73 514.746 102.902C515.09 102.066 515.262 101.066 515.262 99.9023V99.0234C515.262 98.125 515.164 97.332 514.969 96.6445C514.773 95.957 514.484 95.3789 514.102 94.9102C513.727 94.4414 513.262 94.0859 512.707 93.8438C512.152 93.6016 511.516 93.4805 510.797 93.4805H506.977V90.9375H510.797C511.938 90.9375 512.977 91.1289 513.914 91.5117C514.859 91.8945 515.676 92.4453 516.363 93.1641C517.059 93.875 517.59 94.7266 517.957 95.7188C518.332 96.7109 518.52 97.8203 518.52 99.0469V99.9023C518.52 101.121 518.332 102.23 517.957 103.23C517.59 104.223 517.059 105.074 516.363 105.785C515.676 106.496 514.855 107.043 513.902 107.426C512.949 107.809 511.891 108 510.727 108ZM508.852 90.9375V108H505.629V90.9375H508.852ZM524.309 95.3203V108H521.203V95.3203H524.309ZM520.992 92.0039C520.992 91.543 521.148 91.1602 521.461 90.8555C521.781 90.5508 522.211 90.3984 522.75 90.3984C523.289 90.3984 523.715 90.5508 524.027 90.8555C524.348 91.1602 524.508 91.543 524.508 92.0039C524.508 92.457 524.348 92.8359 524.027 93.1406C523.715 93.4453 523.289 93.5977 522.75 93.5977C522.211 93.5977 521.781 93.4453 521.461 93.1406C521.148 92.8359 520.992 92.457 520.992 92.0039ZM530.355 97.9102V108H527.262V95.3203H530.191L530.355 97.9102ZM534.211 95.2383L534.164 98.1211C533.992 98.0898 533.797 98.0664 533.578 98.0508C533.367 98.0352 533.168 98.0273 532.98 98.0273C532.504 98.0273 532.086 98.0938 531.727 98.2266C531.367 98.3516 531.066 98.5352 530.824 98.7773C530.59 99.0195 530.41 99.3164 530.285 99.668C530.16 100.012 530.09 100.402 530.074 100.84L529.406 100.758C529.406 99.9531 529.488 99.207 529.652 98.5195C529.816 97.832 530.055 97.2305 530.367 96.7148C530.68 96.1992 531.07 95.8008 531.539 95.5195C532.016 95.2305 532.562 95.0859 533.18 95.0859C533.352 95.0859 533.535 95.1016 533.73 95.1328C533.934 95.1562 534.094 95.1914 534.211 95.2383ZM541.371 108.234C540.41 108.234 539.547 108.078 538.781 107.766C538.016 107.453 537.363 107.02 536.824 106.465C536.293 105.902 535.883 105.25 535.594 104.508C535.312 103.758 535.172 102.953 535.172 102.094V101.625C535.172 100.648 535.312 99.7617 535.594 98.9648C535.875 98.1602 536.273 97.4688 536.789 96.8906C537.305 96.3125 537.922 95.8672 538.641 95.5547C539.359 95.2422 540.152 95.0859 541.02 95.0859C541.918 95.0859 542.711 95.2383 543.398 95.543C544.086 95.8398 544.66 96.2617 545.121 96.8086C545.582 97.3555 545.93 98.0117 546.164 98.7773C546.398 99.5352 546.516 100.375 546.516 101.297V102.598H536.578V100.465H543.469V100.23C543.453 99.7383 543.359 99.2891 543.188 98.8828C543.016 98.4688 542.75 98.1406 542.391 97.8984C542.031 97.6484 541.566 97.5234 540.996 97.5234C540.535 97.5234 540.133 97.625 539.789 97.8281C539.453 98.0234 539.172 98.3047 538.945 98.6719C538.727 99.0312 538.562 99.4609 538.453 99.9609C538.344 100.461 538.289 101.016 538.289 101.625V102.094C538.289 102.625 538.359 103.117 538.5 103.57C538.648 104.023 538.863 104.418 539.145 104.754C539.434 105.082 539.777 105.34 540.176 105.527C540.582 105.707 541.043 105.797 541.559 105.797C542.207 105.797 542.793 105.672 543.316 105.422C543.848 105.164 544.309 104.785 544.699 104.285L546.258 105.902C545.992 106.293 545.633 106.668 545.18 107.027C544.734 107.387 544.195 107.68 543.562 107.906C542.93 108.125 542.199 108.234 541.371 108.234ZM553.793 105.797C554.23 105.797 554.621 105.711 554.965 105.539C555.309 105.367 555.582 105.125 555.785 104.812C555.996 104.5 556.109 104.137 556.125 103.723H559.043C559.027 104.582 558.785 105.352 558.316 106.031C557.848 106.711 557.223 107.25 556.441 107.648C555.668 108.039 554.801 108.234 553.84 108.234C552.863 108.234 552.012 108.07 551.285 107.742C550.559 107.414 549.953 106.957 549.469 106.371C548.992 105.785 548.633 105.105 548.391 104.332C548.156 103.559 548.039 102.73 548.039 101.848V101.473C548.039 100.59 548.156 99.7617 548.391 98.9883C548.633 98.2148 548.992 97.5352 549.469 96.9492C549.953 96.3633 550.559 95.9062 551.285 95.5781C552.012 95.25 552.859 95.0859 553.828 95.0859C554.852 95.0859 555.75 95.2852 556.523 95.6836C557.305 96.082 557.914 96.6445 558.352 97.3711C558.797 98.0977 559.027 98.9531 559.043 99.9375H556.125C556.109 99.4844 556.008 99.0781 555.82 98.7188C555.633 98.3594 555.367 98.0703 555.023 97.8516C554.68 97.6328 554.262 97.5234 553.77 97.5234C553.246 97.5234 552.809 97.6328 552.457 97.8516C552.113 98.0703 551.844 98.3711 551.648 98.7539C551.461 99.1289 551.328 99.5508 551.25 100.02C551.18 100.48 551.145 100.965 551.145 101.473V101.848C551.145 102.363 551.18 102.855 551.25 103.324C551.328 103.793 551.461 104.215 551.648 104.59C551.844 104.957 552.113 105.25 552.457 105.469C552.809 105.688 553.254 105.797 553.793 105.797ZM566.309 105.797C566.746 105.797 567.137 105.711 567.48 105.539C567.824 105.367 568.098 105.125 568.301 104.812C568.512 104.5 568.625 104.137 568.641 103.723H571.559C571.543 104.582 571.301 105.352 570.832 106.031C570.363 106.711 569.738 107.25 568.957 107.648C568.184 108.039 567.316 108.234 566.355 108.234C565.379 108.234 564.527 108.07 563.801 107.742C563.074 107.414 562.469 106.957 561.984 106.371C561.508 105.785 561.148 105.105 560.906 104.332C560.672 103.559 560.555 102.73 560.555 101.848V101.473C560.555 100.59 560.672 99.7617 560.906 98.9883C561.148 98.2148 561.508 97.5352 561.984 96.9492C562.469 96.3633 563.074 95.9062 563.801 95.5781C564.527 95.25 565.375 95.0859 566.344 95.0859C567.367 95.0859 568.266 95.2852 569.039 95.6836C569.82 96.082 570.43 96.6445 570.867 97.3711C571.312 98.0977 571.543 98.9531 571.559 99.9375H568.641C568.625 99.4844 568.523 99.0781 568.336 98.7188C568.148 98.3594 567.883 98.0703 567.539 97.8516C567.195 97.6328 566.777 97.5234 566.285 97.5234C565.762 97.5234 565.324 97.6328 564.973 97.8516C564.629 98.0703 564.359 98.3711 564.164 98.7539C563.977 99.1289 563.844 99.5508 563.766 100.02C563.695 100.48 563.66 100.965 563.66 101.473V101.848C563.66 102.363 563.695 102.855 563.766 103.324C563.844 103.793 563.977 104.215 564.164 104.59C564.359 104.957 564.629 105.25 564.973 105.469C565.324 105.688 565.77 105.797 566.309 105.797ZM576.902 95.3203V108H573.797V95.3203H576.902ZM573.586 92.0039C573.586 91.543 573.742 91.1602 574.055 90.8555C574.375 90.5508 574.805 90.3984 575.344 90.3984C575.883 90.3984 576.309 90.5508 576.621 90.8555C576.941 91.1602 577.102 91.543 577.102 92.0039C577.102 92.457 576.941 92.8359 576.621 93.1406C576.309 93.4453 575.883 93.5977 575.344 93.5977C574.805 93.5977 574.375 93.4453 574.055 93.1406C573.742 92.8359 573.586 92.457 573.586 92.0039ZM579.305 101.789V101.543C579.305 100.613 579.438 99.7578 579.703 98.9766C579.969 98.1875 580.355 97.5039 580.863 96.9258C581.371 96.3477 581.992 95.8984 582.727 95.5781C583.461 95.25 584.297 95.0859 585.234 95.0859C586.188 95.0859 587.031 95.25 587.766 95.5781C588.508 95.8984 589.133 96.3477 589.641 96.9258C590.148 97.5039 590.535 98.1875 590.801 98.9766C591.066 99.7578 591.199 100.613 591.199 101.543V101.789C591.199 102.711 591.066 103.566 590.801 104.355C590.535 105.137 590.148 105.82 589.641 106.406C589.133 106.984 588.512 107.434 587.777 107.754C587.043 108.074 586.203 108.234 585.258 108.234C584.32 108.234 583.48 108.074 582.738 107.754C581.996 107.434 581.371 106.984 580.863 106.406C580.355 105.82 579.969 105.137 579.703 104.355C579.438 103.566 579.305 102.711 579.305 101.789ZM582.398 101.543V101.789C582.398 102.344 582.453 102.863 582.562 103.348C582.672 103.832 582.84 104.258 583.066 104.625C583.293 104.992 583.586 105.281 583.945 105.492C584.312 105.695 584.75 105.797 585.258 105.797C585.758 105.797 586.188 105.695 586.547 105.492C586.906 105.281 587.199 104.992 587.426 104.625C587.66 104.258 587.832 103.832 587.941 103.348C588.051 102.863 588.105 102.344 588.105 101.789V101.543C588.105 100.996 588.051 100.484 587.941 100.008C587.832 99.5234 587.66 99.0977 587.426 98.7305C587.199 98.3555 586.902 98.0625 586.535 97.8516C586.176 97.6328 585.742 97.5234 585.234 97.5234C584.734 97.5234 584.305 97.6328 583.945 97.8516C583.586 98.0625 583.293 98.3555 583.066 98.7305C582.84 99.0977 582.672 99.5234 582.562 100.008C582.453 100.484 582.398 100.996 582.398 101.543ZM583.699 93.5625L585.996 90H589.418L586.219 93.5625H583.699ZM596.484 98.0273V108H593.391V95.3203H596.297L596.484 98.0273ZM595.992 101.203H595.078C595.086 100.281 595.211 99.4453 595.453 98.6953C595.695 97.9453 596.035 97.3008 596.473 96.7617C596.918 96.2227 597.445 95.8086 598.055 95.5195C598.664 95.2305 599.344 95.0859 600.094 95.0859C600.703 95.0859 601.254 95.1719 601.746 95.3438C602.238 95.5156 602.66 95.7891 603.012 96.1641C603.371 96.5391 603.645 97.0312 603.832 97.6406C604.027 98.2422 604.125 98.9844 604.125 99.8672V108H601.008V99.8438C601.008 99.2656 600.922 98.8086 600.75 98.4727C600.586 98.1367 600.344 97.8984 600.023 97.7578C599.711 97.6172 599.324 97.5469 598.863 97.5469C598.387 97.5469 597.969 97.6445 597.609 97.8398C597.258 98.0273 596.961 98.2891 596.719 98.625C596.484 98.9609 596.305 99.3477 596.18 99.7852C596.055 100.223 595.992 100.695 595.992 101.203Z" fill="#052734"/>
<circle cx="929.5" cy="56" r="15.5" fill="white" stroke="#052734"/>
<circle cx="929.5" cy="56" r="10.1667" fill="#052734" stroke="#052734"/>
<path d="M844.035 90.9375H846.824L851.488 103.781L856.141 90.9375H858.941L852.602 108H850.363L844.035 90.9375ZM842.629 90.9375H845.359L845.852 102.738V108H842.629V90.9375ZM857.605 90.9375H860.348V108H857.125V102.738L857.605 90.9375ZM869.09 108.234C868.129 108.234 867.266 108.078 866.5 107.766C865.734 107.453 865.082 107.02 864.543 106.465C864.012 105.902 863.602 105.25 863.312 104.508C863.031 103.758 862.891 102.953 862.891 102.094V101.625C862.891 100.648 863.031 99.7617 863.312 98.9648C863.594 98.1602 863.992 97.4688 864.508 96.8906C865.023 96.3125 865.641 95.8672 866.359 95.5547C867.078 95.2422 867.871 95.0859 868.738 95.0859C869.637 95.0859 870.43 95.2383 871.117 95.543C871.805 95.8398 872.379 96.2617 872.84 96.8086C873.301 97.3555 873.648 98.0117 873.883 98.7773C874.117 99.5352 874.234 100.375 874.234 101.297V102.598H864.297V100.465H871.188V100.23C871.172 99.7383 871.078 99.2891 870.906 98.8828C870.734 98.4688 870.469 98.1406 870.109 97.8984C869.75 97.6484 869.285 97.5234 868.715 97.5234C868.254 97.5234 867.852 97.625 867.508 97.8281C867.172 98.0234 866.891 98.3047 866.664 98.6719C866.445 99.0312 866.281 99.4609 866.172 99.9609C866.062 100.461 866.008 101.016 866.008 101.625V102.094C866.008 102.625 866.078 103.117 866.219 103.57C866.367 104.023 866.582 104.418 866.863 104.754C867.152 105.082 867.496 105.34 867.895 105.527C868.301 105.707 868.762 105.797 869.277 105.797C869.926 105.797 870.512 105.672 871.035 105.422C871.566 105.164 872.027 104.785 872.418 104.285L873.977 105.902C873.711 106.293 873.352 106.668 872.898 107.027C872.453 107.387 871.914 107.68 871.281 107.906C870.648 108.125 869.918 108.234 869.09 108.234ZM882.309 95.3203V97.5469H875.043V95.3203H882.309ZM876.988 92.2031H880.094V104.344C880.094 104.719 880.145 105.008 880.246 105.211C880.348 105.414 880.5 105.551 880.703 105.621C880.906 105.691 881.148 105.727 881.43 105.727C881.633 105.727 881.82 105.715 881.992 105.691C882.164 105.668 882.309 105.645 882.426 105.621L882.438 107.941C882.18 108.027 881.887 108.098 881.559 108.152C881.238 108.207 880.875 108.234 880.469 108.234C879.773 108.234 879.164 108.117 878.641 107.883C878.117 107.641 877.711 107.254 877.422 106.723C877.133 106.184 876.988 105.473 876.988 104.59V92.2031ZM883.516 101.789V101.543C883.516 100.613 883.648 99.7578 883.914 98.9766C884.18 98.1875 884.566 97.5039 885.074 96.9258C885.582 96.3477 886.203 95.8984 886.938 95.5781C887.672 95.25 888.508 95.0859 889.445 95.0859C890.398 95.0859 891.242 95.25 891.977 95.5781C892.719 95.8984 893.344 96.3477 893.852 96.9258C894.359 97.5039 894.746 98.1875 895.012 98.9766C895.277 99.7578 895.41 100.613 895.41 101.543V101.789C895.41 102.711 895.277 103.566 895.012 104.355C894.746 105.137 894.359 105.82 893.852 106.406C893.344 106.984 892.723 107.434 891.988 107.754C891.254 108.074 890.414 108.234 889.469 108.234C888.531 108.234 887.691 108.074 886.949 107.754C886.207 107.434 885.582 106.984 885.074 106.406C884.566 105.82 884.18 105.137 883.914 104.355C883.648 103.566 883.516 102.711 883.516 101.789ZM886.609 101.543V101.789C886.609 102.344 886.664 102.863 886.773 103.348C886.883 103.832 887.051 104.258 887.277 104.625C887.504 104.992 887.797 105.281 888.156 105.492C888.523 105.695 888.961 105.797 889.469 105.797C889.969 105.797 890.398 105.695 890.758 105.492C891.117 105.281 891.41 104.992 891.637 104.625C891.871 104.258 892.043 103.832 892.152 103.348C892.262 102.863 892.316 102.344 892.316 101.789V101.543C892.316 100.996 892.262 100.484 892.152 100.008C892.043 99.5234 891.871 99.0977 891.637 98.7305C891.41 98.3555 891.113 98.0625 890.746 97.8516C890.387 97.6328 889.953 97.5234 889.445 97.5234C888.945 97.5234 888.516 97.6328 888.156 97.8516C887.797 98.0625 887.504 98.3555 887.277 98.7305C887.051 99.0977 886.883 99.5234 886.773 100.008C886.664 100.484 886.609 100.996 886.609 101.543ZM905.266 105.305V90H908.383V108H905.57L905.266 105.305ZM897.121 101.812V101.566C897.121 100.598 897.23 99.7188 897.449 98.9297C897.676 98.1328 898.004 97.4492 898.434 96.8789C898.863 96.3086 899.383 95.8672 899.992 95.5547C900.609 95.2422 901.309 95.0859 902.09 95.0859C902.848 95.0859 903.508 95.2383 904.07 95.543C904.641 95.8477 905.125 96.2812 905.523 96.8438C905.93 97.4062 906.254 98.0742 906.496 98.8477C906.738 99.6133 906.914 100.457 907.023 101.379V102.047C906.914 102.945 906.738 103.77 906.496 104.52C906.254 105.27 905.93 105.926 905.523 106.488C905.125 107.043 904.641 107.473 904.07 107.777C903.5 108.082 902.832 108.234 902.066 108.234C901.293 108.234 900.598 108.074 899.98 107.754C899.371 107.434 898.852 106.984 898.422 106.406C898 105.828 897.676 105.148 897.449 104.367C897.23 103.586 897.121 102.734 897.121 101.812ZM900.227 101.566V101.812C900.227 102.359 900.273 102.871 900.367 103.348C900.461 103.824 900.613 104.246 900.824 104.613C901.035 104.973 901.305 105.254 901.633 105.457C901.969 105.66 902.375 105.762 902.852 105.762C903.461 105.762 903.961 105.629 904.352 105.363C904.75 105.09 905.059 104.719 905.277 104.25C905.496 103.773 905.637 103.238 905.699 102.645V100.805C905.668 100.336 905.586 99.9023 905.453 99.5039C905.328 99.1055 905.148 98.7617 904.914 98.4727C904.688 98.1836 904.406 97.957 904.07 97.793C903.734 97.6289 903.336 97.5469 902.875 97.5469C902.398 97.5469 901.992 97.6523 901.656 97.8633C901.32 98.0664 901.047 98.3516 900.836 98.7188C900.625 99.0859 900.469 99.5117 900.367 99.9961C900.273 100.48 900.227 101.004 900.227 101.566ZM910.633 101.789V101.543C910.633 100.613 910.766 99.7578 911.031 98.9766C911.297 98.1875 911.684 97.5039 912.191 96.9258C912.699 96.3477 913.32 95.8984 914.055 95.5781C914.789 95.25 915.625 95.0859 916.562 95.0859C917.516 95.0859 918.359 95.25 919.094 95.5781C919.836 95.8984 920.461 96.3477 920.969 96.9258C921.477 97.5039 921.863 98.1875 922.129 98.9766C922.395 99.7578 922.527 100.613 922.527 101.543V101.789C922.527 102.711 922.395 103.566 922.129 104.355C921.863 105.137 921.477 105.82 920.969 106.406C920.461 106.984 919.84 107.434 919.105 107.754C918.371 108.074 917.531 108.234 916.586 108.234C915.648 108.234 914.809 108.074 914.066 107.754C913.324 107.434 912.699 106.984 912.191 106.406C911.684 105.82 911.297 105.137 911.031 104.355C910.766 103.566 910.633 102.711 910.633 101.789ZM913.727 101.543V101.789C913.727 102.344 913.781 102.863 913.891 103.348C914 103.832 914.168 104.258 914.395 104.625C914.621 104.992 914.914 105.281 915.273 105.492C915.641 105.695 916.078 105.797 916.586 105.797C917.086 105.797 917.516 105.695 917.875 105.492C918.234 105.281 918.527 104.992 918.754 104.625C918.988 104.258 919.16 103.832 919.27 103.348C919.379 102.863 919.434 102.344 919.434 101.789V101.543C919.434 100.996 919.379 100.484 919.27 100.008C919.16 99.5234 918.988 99.0977 918.754 98.7305C918.527 98.3555 918.23 98.0625 917.863 97.8516C917.504 97.6328 917.07 97.5234 916.562 97.5234C916.062 97.5234 915.633 97.6328 915.273 97.8516C914.914 98.0625 914.621 98.3555 914.395 98.7305C914.168 99.0977 914 99.5234 913.891 100.008C913.781 100.484 913.727 100.996 913.727 101.543ZM938.359 105.305V90H941.477V108H938.664L938.359 105.305ZM930.215 101.812V101.566C930.215 100.598 930.324 99.7188 930.543 98.9297C930.77 98.1328 931.098 97.4492 931.527 96.8789C931.957 96.3086 932.477 95.8672 933.086 95.5547C933.703 95.2422 934.402 95.0859 935.184 95.0859C935.941 95.0859 936.602 95.2383 937.164 95.543C937.734 95.8477 938.219 96.2812 938.617 96.8438C939.023 97.4062 939.348 98.0742 939.59 98.8477C939.832 99.6133 940.008 100.457 940.117 101.379V102.047C940.008 102.945 939.832 103.77 939.59 104.52C939.348 105.27 939.023 105.926 938.617 106.488C938.219 107.043 937.734 107.473 937.164 107.777C936.594 108.082 935.926 108.234 935.16 108.234C934.387 108.234 933.691 108.074 933.074 107.754C932.465 107.434 931.945 106.984 931.516 106.406C931.094 105.828 930.77 105.148 930.543 104.367C930.324 103.586 930.215 102.734 930.215 101.812ZM933.32 101.566V101.812C933.32 102.359 933.367 102.871 933.461 103.348C933.555 103.824 933.707 104.246 933.918 104.613C934.129 104.973 934.398 105.254 934.727 105.457C935.062 105.66 935.469 105.762 935.945 105.762C936.555 105.762 937.055 105.629 937.445 105.363C937.844 105.09 938.152 104.719 938.371 104.25C938.59 103.773 938.73 103.238 938.793 102.645V100.805C938.762 100.336 938.68 99.9023 938.547 99.5039C938.422 99.1055 938.242 98.7617 938.008 98.4727C937.781 98.1836 937.5 97.957 937.164 97.793C936.828 97.6289 936.43 97.5469 935.969 97.5469C935.492 97.5469 935.086 97.6523 934.75 97.8633C934.414 98.0664 934.141 98.3516 933.93 98.7188C933.719 99.0859 933.562 99.5117 933.461 99.9961C933.367 100.48 933.32 101.004 933.32 101.566ZM949.973 108.234C949.012 108.234 948.148 108.078 947.383 107.766C946.617 107.453 945.965 107.02 945.426 106.465C944.895 105.902 944.484 105.25 944.195 104.508C943.914 103.758 943.773 102.953 943.773 102.094V101.625C943.773 100.648 943.914 99.7617 944.195 98.9648C944.477 98.1602 944.875 97.4688 945.391 96.8906C945.906 96.3125 946.523 95.8672 947.242 95.5547C947.961 95.2422 948.754 95.0859 949.621 95.0859C950.52 95.0859 951.312 95.2383 952 95.543C952.688 95.8398 953.262 96.2617 953.723 96.8086C954.184 97.3555 954.531 98.0117 954.766 98.7773C955 99.5352 955.117 100.375 955.117 101.297V102.598H945.18V100.465H952.07V100.23C952.055 99.7383 951.961 99.2891 951.789 98.8828C951.617 98.4688 951.352 98.1406 950.992 97.8984C950.633 97.6484 950.168 97.5234 949.598 97.5234C949.137 97.5234 948.734 97.625 948.391 97.8281C948.055 98.0234 947.773 98.3047 947.547 98.6719C947.328 99.0312 947.164 99.4609 947.055 99.9609C946.945 100.461 946.891 101.016 946.891 101.625V102.094C946.891 102.625 946.961 103.117 947.102 103.57C947.25 104.023 947.465 104.418 947.746 104.754C948.035 105.082 948.379 105.34 948.777 105.527C949.184 105.707 949.645 105.797 950.16 105.797C950.809 105.797 951.395 105.672 951.918 105.422C952.449 105.164 952.91 104.785 953.301 104.285L954.859 105.902C954.594 106.293 954.234 106.668 953.781 107.027C953.336 107.387 952.797 107.68 952.164 107.906C951.531 108.125 950.801 108.234 949.973 108.234ZM969.965 101.777H965.57V99.2461H969.965C970.684 99.2461 971.266 99.1289 971.711 98.8945C972.164 98.6523 972.496 98.3242 972.707 97.9102C972.918 97.4883 973.023 97.0078 973.023 96.4688C973.023 95.9453 972.918 95.457 972.707 95.0039C972.496 94.5508 972.164 94.1836 971.711 93.9023C971.266 93.6211 970.684 93.4805 969.965 93.4805H966.625V108H963.402V90.9375H969.965C971.293 90.9375 972.426 91.1758 973.363 91.6523C974.309 92.1211 975.027 92.7734 975.52 93.6094C976.02 94.4375 976.27 95.3828 976.27 96.4453C976.27 97.5469 976.02 98.4961 975.52 99.293C975.027 100.09 974.309 100.703 973.363 101.133C972.426 101.562 971.293 101.777 969.965 101.777ZM985.41 105.305V99.457C985.41 99.0273 985.336 98.6562 985.188 98.3438C985.039 98.0312 984.812 97.7891 984.508 97.6172C984.203 97.4453 983.816 97.3594 983.348 97.3594C982.934 97.3594 982.57 97.4297 982.258 97.5703C981.953 97.7109 981.719 97.9102 981.555 98.168C981.391 98.418 981.309 98.707 981.309 99.0352H978.203C978.203 98.5117 978.328 98.0156 978.578 97.5469C978.828 97.0703 979.184 96.6484 979.645 96.2812C980.113 95.9062 980.672 95.6133 981.32 95.4023C981.977 95.1914 982.711 95.0859 983.523 95.0859C984.484 95.0859 985.34 95.25 986.09 95.5781C986.848 95.8984 987.441 96.3828 987.871 97.0312C988.309 97.6797 988.527 98.4961 988.527 99.4805V105.012C988.527 105.645 988.566 106.188 988.645 106.641C988.73 107.086 988.855 107.473 989.02 107.801V108H985.867C985.719 107.68 985.605 107.273 985.527 106.781C985.449 106.281 985.41 105.789 985.41 105.305ZM985.844 100.277L985.867 102.117H983.91C983.426 102.117 983 102.168 982.633 102.27C982.266 102.363 981.965 102.504 981.73 102.691C981.496 102.871 981.32 103.09 981.203 103.348C981.086 103.598 981.027 103.883 981.027 104.203C981.027 104.516 981.098 104.797 981.238 105.047C981.387 105.297 981.598 105.496 981.871 105.645C982.152 105.785 982.48 105.855 982.855 105.855C983.402 105.855 983.879 105.746 984.285 105.527C984.691 105.301 985.008 105.027 985.234 104.707C985.461 104.387 985.582 104.082 985.598 103.793L986.488 105.129C986.379 105.449 986.215 105.789 985.996 106.148C985.777 106.508 985.496 106.844 985.152 107.156C984.809 107.469 984.395 107.727 983.91 107.93C983.426 108.133 982.863 108.234 982.223 108.234C981.402 108.234 980.668 108.07 980.02 107.742C979.371 107.414 978.859 106.965 978.484 106.395C978.109 105.824 977.922 105.176 977.922 104.449C977.922 103.777 978.047 103.184 978.297 102.668C978.547 102.152 978.918 101.719 979.41 101.367C979.902 101.008 980.512 100.738 981.238 100.559C981.973 100.371 982.812 100.277 983.758 100.277H985.844ZM999.379 95.3203H1002.19V107.613C1002.19 108.762 1001.94 109.734 1001.44 110.531C1000.95 111.336 1000.26 111.945 999.367 112.359C998.477 112.781 997.441 112.992 996.262 112.992C995.754 112.992 995.203 112.922 994.609 112.781C994.023 112.641 993.457 112.418 992.91 112.113C992.371 111.816 991.922 111.43 991.562 110.953L992.957 109.125C993.379 109.617 993.855 109.988 994.387 110.238C994.918 110.496 995.492 110.625 996.109 110.625C996.734 110.625 997.266 110.508 997.703 110.273C998.148 110.047 998.488 109.711 998.723 109.266C998.965 108.828 999.086 108.289 999.086 107.648V98.2148L999.379 95.3203ZM990.812 101.812V101.566C990.812 100.598 990.93 99.7188 991.164 98.9297C991.398 98.1328 991.734 97.4492 992.172 96.8789C992.617 96.3086 993.152 95.8672 993.777 95.5547C994.41 95.2422 995.121 95.0859 995.91 95.0859C996.746 95.0859 997.449 95.2383 998.02 95.543C998.598 95.8477 999.074 96.2812 999.449 96.8438C999.832 97.4062 1000.13 98.0742 1000.34 98.8477C1000.56 99.6133 1000.73 100.457 1000.84 101.379V102.047C1000.73 102.945 1000.56 103.77 1000.32 104.52C1000.08 105.27 999.77 105.926 999.379 106.488C998.988 107.043 998.504 107.473 997.926 107.777C997.348 108.082 996.668 108.234 995.887 108.234C995.105 108.234 994.402 108.074 993.777 107.754C993.152 107.434 992.617 106.984 992.172 106.406C991.734 105.828 991.398 105.148 991.164 104.367C990.93 103.586 990.812 102.734 990.812 101.812ZM993.906 101.566V101.812C993.906 102.359 993.961 102.871 994.07 103.348C994.18 103.824 994.348 104.246 994.574 104.613C994.801 104.973 995.086 105.254 995.43 105.457C995.773 105.66 996.184 105.762 996.66 105.762C997.301 105.762 997.824 105.629 998.23 105.363C998.645 105.09 998.957 104.719 999.168 104.25C999.387 103.773 999.527 103.238 999.59 102.645V100.805C999.551 100.336 999.465 99.9023 999.332 99.5039C999.207 99.1055 999.031 98.7617 998.805 98.4727C998.578 98.1836 998.289 97.957 997.938 97.793C997.586 97.6289 997.168 97.5469 996.684 97.5469C996.215 97.5469 995.805 97.6523 995.453 97.8633C995.102 98.0664 994.812 98.3516 994.586 98.7188C994.359 99.0859 994.188 99.5117 994.07 99.9961C993.961 100.48 993.906 101.004 993.906 101.566ZM1004.43 101.789V101.543C1004.43 100.613 1004.56 99.7578 1004.83 98.9766C1005.09 98.1875 1005.48 97.5039 1005.99 96.9258C1006.5 96.3477 1007.12 95.8984 1007.85 95.5781C1008.59 95.25 1009.42 95.0859 1010.36 95.0859C1011.31 95.0859 1012.16 95.25 1012.89 95.5781C1013.63 95.8984 1014.26 96.3477 1014.77 96.9258C1015.27 97.5039 1015.66 98.1875 1015.93 98.9766C1016.19 99.7578 1016.32 100.613 1016.32 101.543V101.789C1016.32 102.711 1016.19 103.566 1015.93 104.355C1015.66 105.137 1015.27 105.82 1014.77 106.406C1014.26 106.984 1013.64 107.434 1012.9 107.754C1012.17 108.074 1011.33 108.234 1010.38 108.234C1009.45 108.234 1008.61 108.074 1007.86 107.754C1007.12 107.434 1006.5 106.984 1005.99 106.406C1005.48 105.82 1005.09 105.137 1004.83 104.355C1004.56 103.566 1004.43 102.711 1004.43 101.789ZM1007.52 101.543V101.789C1007.52 102.344 1007.58 102.863 1007.69 103.348C1007.8 103.832 1007.96 104.258 1008.19 104.625C1008.42 104.992 1008.71 105.281 1009.07 105.492C1009.44 105.695 1009.88 105.797 1010.38 105.797C1010.88 105.797 1011.31 105.695 1011.67 105.492C1012.03 105.281 1012.32 104.992 1012.55 104.625C1012.79 104.258 1012.96 103.832 1013.07 103.348C1013.18 102.863 1013.23 102.344 1013.23 101.789V101.543C1013.23 100.996 1013.18 100.484 1013.07 100.008C1012.96 99.5234 1012.79 99.0977 1012.55 98.7305C1012.32 98.3555 1012.03 98.0625 1011.66 97.8516C1011.3 97.6328 1010.87 97.5234 1010.36 97.5234C1009.86 97.5234 1009.43 97.6328 1009.07 97.8516C1008.71 98.0625 1008.42 98.3555 1008.19 98.7305C1007.96 99.0977 1007.8 99.5234 1007.69 100.008C1007.58 100.484 1007.52 100.996 1007.52 101.543Z" fill="#B2BCCA"/>
<circle cx="1326" cy="56" r="15" stroke="#052734" stroke-width="2"/>
<path d="M1264.61 102.387H1267.84C1267.75 103.527 1267.43 104.539 1266.89 105.422C1266.34 106.297 1265.58 106.984 1264.6 107.484C1263.62 107.984 1262.44 108.234 1261.05 108.234C1259.98 108.234 1259.02 108.047 1258.16 107.672C1257.3 107.289 1256.57 106.746 1255.96 106.043C1255.36 105.332 1254.9 104.48 1254.58 103.488C1254.26 102.488 1254.1 101.367 1254.1 100.125V98.8242C1254.1 97.582 1254.27 96.4609 1254.59 95.4609C1254.92 94.4609 1255.39 93.6094 1256 92.9062C1256.62 92.1953 1257.36 91.6484 1258.21 91.2656C1259.08 90.8828 1260.05 90.6914 1261.12 90.6914C1262.51 90.6914 1263.69 90.9492 1264.65 91.4648C1265.61 91.9727 1266.36 92.6719 1266.89 93.5625C1267.42 94.4531 1267.74 95.4766 1267.85 96.6328H1264.62C1264.56 95.9141 1264.41 95.3047 1264.16 94.8047C1263.91 94.3047 1263.55 93.9258 1263.05 93.668C1262.57 93.4023 1261.93 93.2695 1261.12 93.2695C1260.5 93.2695 1259.95 93.3867 1259.47 93.6211C1259 93.8555 1258.61 94.207 1258.3 94.6758C1257.98 95.1367 1257.75 95.7148 1257.59 96.4102C1257.44 97.0977 1257.36 97.8945 1257.36 98.8008V100.125C1257.36 100.992 1257.43 101.77 1257.57 102.457C1257.71 103.145 1257.93 103.727 1258.23 104.203C1258.52 104.68 1258.91 105.043 1259.38 105.293C1259.84 105.543 1260.4 105.668 1261.05 105.668C1261.84 105.668 1262.48 105.543 1262.97 105.293C1263.47 105.043 1263.85 104.676 1264.11 104.191C1264.38 103.707 1264.54 103.105 1264.61 102.387ZM1269.55 101.789V101.543C1269.55 100.613 1269.68 99.7578 1269.95 98.9766C1270.21 98.1875 1270.6 97.5039 1271.11 96.9258C1271.61 96.3477 1272.23 95.8984 1272.97 95.5781C1273.7 95.25 1274.54 95.0859 1275.48 95.0859C1276.43 95.0859 1277.27 95.25 1278.01 95.5781C1278.75 95.8984 1279.38 96.3477 1279.88 96.9258C1280.39 97.5039 1280.78 98.1875 1281.04 98.9766C1281.31 99.7578 1281.44 100.613 1281.44 101.543V101.789C1281.44 102.711 1281.31 103.566 1281.04 104.355C1280.78 105.137 1280.39 105.82 1279.88 106.406C1279.38 106.984 1278.75 107.434 1278.02 107.754C1277.29 108.074 1276.45 108.234 1275.5 108.234C1274.56 108.234 1273.72 108.074 1272.98 107.754C1272.24 107.434 1271.61 106.984 1271.11 106.406C1270.6 105.82 1270.21 105.137 1269.95 104.355C1269.68 103.566 1269.55 102.711 1269.55 101.789ZM1272.64 101.543V101.789C1272.64 102.344 1272.7 102.863 1272.8 103.348C1272.91 103.832 1273.08 104.258 1273.31 104.625C1273.54 104.992 1273.83 105.281 1274.19 105.492C1274.55 105.695 1274.99 105.797 1275.5 105.797C1276 105.797 1276.43 105.695 1276.79 105.492C1277.15 105.281 1277.44 104.992 1277.67 104.625C1277.9 104.258 1278.07 103.832 1278.18 103.348C1278.29 102.863 1278.35 102.344 1278.35 101.789V101.543C1278.35 100.996 1278.29 100.484 1278.18 100.008C1278.07 99.5234 1277.9 99.0977 1277.67 98.7305C1277.44 98.3555 1277.14 98.0625 1276.78 97.8516C1276.42 97.6328 1275.98 97.5234 1275.48 97.5234C1274.98 97.5234 1274.55 97.6328 1274.19 97.8516C1273.83 98.0625 1273.54 98.3555 1273.31 98.7305C1273.08 99.0977 1272.91 99.5234 1272.8 100.008C1272.7 100.484 1272.64 100.996 1272.64 101.543ZM1286.73 98.0273V108H1283.63V95.3203H1286.54L1286.73 98.0273ZM1286.23 101.203H1285.32C1285.33 100.281 1285.45 99.4453 1285.7 98.6953C1285.94 97.9453 1286.28 97.3008 1286.71 96.7617C1287.16 96.2227 1287.69 95.8086 1288.3 95.5195C1288.91 95.2305 1289.59 95.0859 1290.34 95.0859C1290.95 95.0859 1291.5 95.1719 1291.99 95.3438C1292.48 95.5156 1292.9 95.7891 1293.25 96.1641C1293.61 96.5391 1293.89 97.0312 1294.07 97.6406C1294.27 98.2422 1294.37 98.9844 1294.37 99.8672V108H1291.25V99.8438C1291.25 99.2656 1291.16 98.8086 1290.99 98.4727C1290.83 98.1367 1290.59 97.8984 1290.27 97.7578C1289.95 97.6172 1289.57 97.5469 1289.11 97.5469C1288.63 97.5469 1288.21 97.6445 1287.85 97.8398C1287.5 98.0273 1287.2 98.2891 1286.96 98.625C1286.73 98.9609 1286.55 99.3477 1286.42 99.7852C1286.3 100.223 1286.23 100.695 1286.23 101.203ZM1301.01 108H1297.89V94.6172C1297.89 93.5703 1298.11 92.6875 1298.53 91.9688C1298.96 91.2422 1299.57 90.6914 1300.37 90.3164C1301.17 89.9414 1302.13 89.7539 1303.24 89.7539C1303.89 89.7539 1304.51 89.8203 1305.11 89.9531C1305.72 90.0781 1306.35 90.2422 1306.99 90.4453L1306.53 92.9531C1306.12 92.8203 1305.66 92.6953 1305.17 92.5781C1304.69 92.4609 1304.11 92.4023 1303.45 92.4023C1302.63 92.4023 1302.02 92.5898 1301.61 92.9648C1301.21 93.3398 1301.01 93.8906 1301.01 94.6172V108ZM1303.54 95.3203V97.5469H1295.98V95.3203H1303.54ZM1308.44 95.3203V108H1305.34V95.3203H1308.44ZM1314.54 97.9102V108H1311.44V95.3203H1314.37L1314.54 97.9102ZM1318.39 95.2383L1318.34 98.1211C1318.17 98.0898 1317.98 98.0664 1317.76 98.0508C1317.55 98.0352 1317.35 98.0273 1317.16 98.0273C1316.68 98.0273 1316.27 98.0938 1315.91 98.2266C1315.55 98.3516 1315.25 98.5352 1315 98.7773C1314.77 99.0195 1314.59 99.3164 1314.46 99.668C1314.34 100.012 1314.27 100.402 1314.25 100.84L1313.59 100.758C1313.59 99.9531 1313.67 99.207 1313.83 98.5195C1314 97.832 1314.23 97.2305 1314.55 96.7148C1314.86 96.1992 1315.25 95.8008 1315.72 95.5195C1316.2 95.2305 1316.74 95.0859 1317.36 95.0859C1317.53 95.0859 1317.71 95.1016 1317.91 95.1328C1318.11 95.1562 1318.27 95.1914 1318.39 95.2383ZM1323.17 97.9219V108H1320.08V95.3203H1323L1323.17 97.9219ZM1322.71 101.203H1321.77C1321.77 100.32 1321.87 99.5078 1322.08 98.7656C1322.3 98.0234 1322.62 97.3789 1323.04 96.832C1323.46 96.2773 1323.98 95.8477 1324.6 95.543C1325.23 95.2383 1325.95 95.0859 1326.77 95.0859C1327.34 95.0859 1327.86 95.1719 1328.34 95.3438C1328.82 95.5078 1329.23 95.7695 1329.57 96.1289C1329.92 96.4805 1330.19 96.9414 1330.38 97.5117C1330.57 98.0742 1330.66 98.75 1330.66 99.5391V108H1327.57V99.8555C1327.57 99.2617 1327.48 98.7969 1327.31 98.4609C1327.14 98.125 1326.91 97.8906 1326.59 97.7578C1326.28 97.6172 1325.91 97.5469 1325.47 97.5469C1324.98 97.5469 1324.57 97.6445 1324.21 97.8398C1323.87 98.0273 1323.59 98.2891 1323.36 98.625C1323.14 98.9609 1322.98 99.3477 1322.87 99.7852C1322.77 100.223 1322.71 100.695 1322.71 101.203ZM1330.43 100.629L1329.15 100.863C1329.16 100.066 1329.27 99.3203 1329.48 98.625C1329.69 97.9219 1330 97.3086 1330.4 96.7852C1330.82 96.2539 1331.33 95.8398 1331.94 95.543C1332.55 95.2383 1333.27 95.0859 1334.07 95.0859C1334.7 95.0859 1335.26 95.1758 1335.76 95.3555C1336.27 95.5273 1336.7 95.8047 1337.06 96.1875C1337.42 96.5625 1337.69 97.0508 1337.88 97.6523C1338.07 98.2539 1338.17 98.9883 1338.17 99.8555V108H1335.05V99.8438C1335.05 99.2266 1334.97 98.7539 1334.8 98.4258C1334.63 98.0977 1334.39 97.8711 1334.08 97.7461C1333.77 97.6133 1333.4 97.5469 1332.98 97.5469C1332.55 97.5469 1332.18 97.6289 1331.86 97.793C1331.54 97.9492 1331.28 98.168 1331.06 98.4492C1330.85 98.7305 1330.69 99.0586 1330.58 99.4336C1330.48 99.8008 1330.43 100.199 1330.43 100.629ZM1347.93 105.305V99.457C1347.93 99.0273 1347.86 98.6562 1347.71 98.3438C1347.56 98.0312 1347.34 97.7891 1347.03 97.6172C1346.73 97.4453 1346.34 97.3594 1345.87 97.3594C1345.46 97.3594 1345.09 97.4297 1344.78 97.5703C1344.48 97.7109 1344.24 97.9102 1344.08 98.168C1343.91 98.418 1343.83 98.707 1343.83 99.0352H1340.73C1340.73 98.5117 1340.85 98.0156 1341.1 97.5469C1341.35 97.0703 1341.71 96.6484 1342.17 96.2812C1342.64 95.9062 1343.2 95.6133 1343.84 95.4023C1344.5 95.1914 1345.23 95.0859 1346.05 95.0859C1347.01 95.0859 1347.86 95.25 1348.61 95.5781C1349.37 95.8984 1349.96 96.3828 1350.39 97.0312C1350.83 97.6797 1351.05 98.4961 1351.05 99.4805V105.012C1351.05 105.645 1351.09 106.188 1351.17 106.641C1351.25 107.086 1351.38 107.473 1351.54 107.801V108H1348.39C1348.24 107.68 1348.13 107.273 1348.05 106.781C1347.97 106.281 1347.93 105.789 1347.93 105.305ZM1348.37 100.277L1348.39 102.117H1346.43C1345.95 102.117 1345.52 102.168 1345.16 102.27C1344.79 102.363 1344.49 102.504 1344.25 102.691C1344.02 102.871 1343.84 103.09 1343.73 103.348C1343.61 103.598 1343.55 103.883 1343.55 104.203C1343.55 104.516 1343.62 104.797 1343.76 105.047C1343.91 105.297 1344.12 105.496 1344.39 105.645C1344.68 105.785 1345 105.855 1345.38 105.855C1345.93 105.855 1346.4 105.746 1346.81 105.527C1347.21 105.301 1347.53 105.027 1347.76 104.707C1347.98 104.387 1348.11 104.082 1348.12 103.793L1349.01 105.129C1348.9 105.449 1348.74 105.789 1348.52 106.148C1348.3 106.508 1348.02 106.844 1347.68 107.156C1347.33 107.469 1346.92 107.727 1346.43 107.93C1345.95 108.133 1345.39 108.234 1344.75 108.234C1343.93 108.234 1343.19 108.07 1342.54 107.742C1341.89 107.414 1341.38 106.965 1341.01 106.395C1340.63 105.824 1340.45 105.176 1340.45 104.449C1340.45 103.777 1340.57 103.184 1340.82 102.668C1341.07 102.152 1341.44 101.719 1341.93 101.367C1342.43 101.008 1343.04 100.738 1343.76 100.559C1344.5 100.371 1345.34 100.277 1346.28 100.277H1348.37ZM1359.04 105.797C1359.48 105.797 1359.87 105.711 1360.21 105.539C1360.56 105.367 1360.83 105.125 1361.04 104.812C1361.25 104.5 1361.36 104.137 1361.38 103.723H1364.29C1364.28 104.582 1364.04 105.352 1363.57 106.031C1363.1 106.711 1362.47 107.25 1361.69 107.648C1360.92 108.039 1360.05 108.234 1359.09 108.234C1358.11 108.234 1357.26 108.07 1356.54 107.742C1355.81 107.414 1355.2 106.957 1354.72 106.371C1354.24 105.785 1353.88 105.105 1353.64 104.332C1353.41 103.559 1353.29 102.73 1353.29 101.848V101.473C1353.29 100.59 1353.41 99.7617 1353.64 98.9883C1353.88 98.2148 1354.24 97.5352 1354.72 96.9492C1355.2 96.3633 1355.81 95.9062 1356.54 95.5781C1357.26 95.25 1358.11 95.0859 1359.08 95.0859C1360.1 95.0859 1361 95.2852 1361.77 95.6836C1362.55 96.082 1363.16 96.6445 1363.6 97.3711C1364.05 98.0977 1364.28 98.9531 1364.29 99.9375H1361.38C1361.36 99.4844 1361.26 99.0781 1361.07 98.7188C1360.88 98.3594 1360.62 98.0703 1360.27 97.8516C1359.93 97.6328 1359.51 97.5234 1359.02 97.5234C1358.5 97.5234 1358.06 97.6328 1357.71 97.8516C1357.36 98.0703 1357.09 98.3711 1356.9 98.7539C1356.71 99.1289 1356.58 99.5508 1356.5 100.02C1356.43 100.48 1356.39 100.965 1356.39 101.473V101.848C1356.39 102.363 1356.43 102.855 1356.5 103.324C1356.58 103.793 1356.71 104.215 1356.9 104.59C1357.09 104.957 1357.36 105.25 1357.71 105.469C1358.06 105.688 1358.5 105.797 1359.04 105.797ZM1369.64 95.3203V108H1366.53V95.3203H1369.64ZM1366.32 92.0039C1366.32 91.543 1366.48 91.1602 1366.79 90.8555C1367.11 90.5508 1367.54 90.3984 1368.08 90.3984C1368.62 90.3984 1369.04 90.5508 1369.36 90.8555C1369.68 91.1602 1369.84 91.543 1369.84 92.0039C1369.84 92.457 1369.68 92.8359 1369.36 93.1406C1369.04 93.4453 1368.62 93.5977 1368.08 93.5977C1367.54 93.5977 1367.11 93.4453 1366.79 93.1406C1366.48 92.8359 1366.32 92.457 1366.32 92.0039ZM1372.04 101.789V101.543C1372.04 100.613 1372.17 99.7578 1372.44 98.9766C1372.7 98.1875 1373.09 97.5039 1373.6 96.9258C1374.11 96.3477 1374.73 95.8984 1375.46 95.5781C1376.2 95.25 1377.03 95.0859 1377.97 95.0859C1378.92 95.0859 1379.77 95.25 1380.5 95.5781C1381.24 95.8984 1381.87 96.3477 1382.38 96.9258C1382.88 97.5039 1383.27 98.1875 1383.54 98.9766C1383.8 99.7578 1383.93 100.613 1383.93 101.543V101.789C1383.93 102.711 1383.8 103.566 1383.54 104.355C1383.27 105.137 1382.88 105.82 1382.38 106.406C1381.87 106.984 1381.25 107.434 1380.51 107.754C1379.78 108.074 1378.94 108.234 1377.99 108.234C1377.05 108.234 1376.21 108.074 1375.47 107.754C1374.73 107.434 1374.11 106.984 1373.6 106.406C1373.09 105.82 1372.7 105.137 1372.44 104.355C1372.17 103.566 1372.04 102.711 1372.04 101.789ZM1375.13 101.543V101.789C1375.13 102.344 1375.19 102.863 1375.3 103.348C1375.41 103.832 1375.57 104.258 1375.8 104.625C1376.03 104.992 1376.32 105.281 1376.68 105.492C1377.05 105.695 1377.48 105.797 1377.99 105.797C1378.49 105.797 1378.92 105.695 1379.28 105.492C1379.64 105.281 1379.93 104.992 1380.16 104.625C1380.39 104.258 1380.57 103.832 1380.68 103.348C1380.79 102.863 1380.84 102.344 1380.84 101.789V101.543C1380.84 100.996 1380.79 100.484 1380.68 100.008C1380.57 99.5234 1380.39 99.0977 1380.16 98.7305C1379.93 98.3555 1379.64 98.0625 1379.27 97.8516C1378.91 97.6328 1378.48 97.5234 1377.97 97.5234C1377.47 97.5234 1377.04 97.6328 1376.68 97.8516C1376.32 98.0625 1376.03 98.3555 1375.8 98.7305C1375.57 99.0977 1375.41 99.5234 1375.3 100.008C1375.19 100.484 1375.13 100.996 1375.13 101.543ZM1389.22 98.0273V108H1386.12V95.3203H1389.03L1389.22 98.0273ZM1388.73 101.203H1387.81C1387.82 100.281 1387.95 99.4453 1388.19 98.6953C1388.43 97.9453 1388.77 97.3008 1389.21 96.7617C1389.65 96.2227 1390.18 95.8086 1390.79 95.5195C1391.4 95.2305 1392.08 95.0859 1392.83 95.0859C1393.44 95.0859 1393.99 95.1719 1394.48 95.3438C1394.97 95.5156 1395.39 95.7891 1395.75 96.1641C1396.11 96.5391 1396.38 97.0312 1396.57 97.6406C1396.76 98.2422 1396.86 98.9844 1396.86 99.8672V108H1393.74V99.8438C1393.74 99.2656 1393.66 98.8086 1393.48 98.4727C1393.32 98.1367 1393.08 97.8984 1392.76 97.7578C1392.45 97.6172 1392.06 97.5469 1391.6 97.5469C1391.12 97.5469 1390.7 97.6445 1390.34 97.8398C1389.99 98.0273 1389.7 98.2891 1389.45 98.625C1389.22 98.9609 1389.04 99.3477 1388.91 99.7852C1388.79 100.223 1388.73 100.695 1388.73 101.203Z" fill="#B2BCCA"/>
</svg>
