<svg width="48" height="48" viewBox="0 0 48 48" fill="none" xmlns="http://www.w3.org/2000/svg">
<g filter="url(#filter0_d_976_337)">
<circle cx="24" cy="20" r="20" fill="white"/>
</g>
<path d="M34.3043 15.0085C33.9735 14.1262 33.4965 13.3267 32.9 12.6547C32.3031 11.9808 31.5994 11.4452 30.827 11.0771C30.0261 10.6939 29.1671 10.4977 28.2999 10.5C27.0832 10.5 25.8962 10.8838 24.8646 11.6087C24.6178 11.7821 24.3834 11.9725 24.1613 12.18C23.9392 11.9725 23.7047 11.7821 23.4579 11.6087C22.4263 10.8838 21.2393 10.5 20.0226 10.5C19.1465 10.5 18.2976 10.6933 17.4955 11.0771C16.7206 11.4466 16.0222 11.9782 15.4225 12.6547C14.8252 13.326 14.3482 14.1256 14.0183 15.0085C13.6752 15.9266 13.5 16.9017 13.5 17.9051C13.5 18.8517 13.6678 19.8381 14.001 20.8416C14.2799 21.6802 14.6796 22.55 15.1905 23.4284C16 24.8184 17.113 26.2682 18.495 27.7379C20.7852 30.174 23.0532 31.8569 23.1494 31.9251L23.7343 32.3572C23.9934 32.5476 24.3266 32.5476 24.5857 32.3572L25.1706 31.9251C25.2669 31.854 27.5324 30.174 29.8251 27.7379C31.2071 26.2682 32.3201 24.8184 33.1296 23.4284C33.6404 22.55 34.0427 21.6802 34.3191 20.8416C34.6522 19.8381 34.8201 18.8517 34.8201 17.9051C34.8225 16.9017 34.6473 15.9266 34.3043 15.0085Z" fill="#218037"/>
<defs>
<filter id="filter0_d_976_337" x="0" y="0" width="48" height="48" filterUnits="userSpaceOnUse" color-interpolation-filters="sRGB">
<feFlood flood-opacity="0" result="BackgroundImageFix"/>
<feColorMatrix in="SourceAlpha" type="matrix" values="0 0 0 0 0 0 0 0 0 0 0 0 0 0 0 0 0 0 127 0" result="hardAlpha"/>
<feOffset dy="4"/>
<feGaussianBlur stdDeviation="2"/>
<feColorMatrix type="matrix" values="0 0 0 0 0.616667 0 0 0 0 0.616667 0 0 0 0 0.616667 0 0 0 0.14 0"/>
<feBlend mode="normal" in2="BackgroundImageFix" result="effect1_dropShadow_976_337"/>
<feBlend mode="normal" in="SourceGraphic" in2="effect1_dropShadow_976_337" result="shape"/>
</filter>
</defs>
</svg>
