<svg width="20" height="24" viewBox="0 0 20 24" fill="none" xmlns="http://www.w3.org/2000/svg">
<path d="M19.3536 8.18903L13.358 7.12803L10.6778 0.511825C10.6046 0.330677 10.4841 0.184034 10.3354 0.0948975C9.96227 -0.129381 9.50887 0.0575179 9.32232 0.511825L6.64213 7.12803L0.646516 8.18903C0.481218 8.21779 0.330088 8.31267 0.214379 8.45644C0.0744931 8.63151 -0.00259025 8.86704 6.6464e-05 9.11128C0.00272317 9.35552 0.0849026 9.58848 0.228547 9.75898L4.56645 14.9087L3.5416 22.1805C3.51757 22.3497 3.53294 22.5237 3.58598 22.6827C3.63901 22.8418 3.72759 22.9796 3.84166 23.0804C3.95573 23.1813 4.09074 23.2413 4.23137 23.2535C4.37199 23.2657 4.51262 23.2297 4.63729 23.1495L10 19.7163L15.3628 23.1495C15.5092 23.2444 15.6792 23.276 15.8422 23.2415C16.2531 23.1553 16.5293 22.6808 16.4585 22.1805L15.4336 14.9087L19.7715 9.75898C19.8896 9.61809 19.9675 9.43406 19.9912 9.23279C20.0549 8.7296 19.7668 8.26379 19.3536 8.18903Z" fill="#EAA92A"/>
</svg>
