<svg xmlns="http://www.w3.org/2000/svg" width="320" height="320" fill-rule="evenodd" clip-rule="evenodd" image-rendering="optimizeQuality" shape-rendering="geometricPrecision" text-rendering="geometricPrecision" viewBox="0 0 8466.66 8466.66"><rect width="8466.66" height="8466.66" fill="none"/><path fill="#6fa6ff" d="M4271.53 709.07c-670.43,931.76 -1638.18,1298.13 -2903.21,1099.1 -78.2,3521.3 893.47,5094.27 2914.99,5949.41 2243.94,-769.94 2819.41,-2487.8 2819.41,-5949.41 -938.45,298.14 -1882.18,-68.23 -2831.19,-1099.1z"/><path fill-rule="nonzero" d="M4278.89 840.66c-333.55,435.85 -735.64,742.9 -1206.22,921.05 -472.98,179.05 -1013.62,226.99 -1621.87,143.82 -28.71,1696.35 192.18,2927.82 662.69,3838.47 471.01,911.59 1195.32,1503.93 2172.56,1923.03 1080.34,-377.47 1760.77,-982.22 2171.05,-1908.84 409.73,-925.36 554.56,-2174.4 560.72,-3837.55 -451.5,119.33 -903.91,91.02 -1357.16,-84.93 -461.05,-178.98 -921.65,-510.7 -1381.77,-995.05zm-1265.76 762.97c466.64,-176.66 862.33,-489.95 1187.03,-939.82 3.87,-6.1 8.58,-11.8 14.15,-16.92 34.34,-31.6 87.8,-29.38 119.4,4.96 465.75,505.91 928.36,848.08 1387.81,1026.44 451.06,175.1 900.55,192.35 1348.42,51.79 10.08,-4.24 21.16,-6.58 32.78,-6.58 46.76,0 84.67,37.91 84.67,84.67 0,1742.09 -145.72,3047.46 -575.51,4018.14 -434.61,981.57 -1155.13,1618.09 -2301.12,2011.3l-0.09 -0.26c-18.92,6.49 -40.21,6.33 -60.1,-2.05 -1029.04,-435.3 -1791.39,-1054.27 -2287.22,-2013.92 -492.33,-952.88 -718.78,-2239.48 -679.36,-4014.86 0.09,-3.72 0.41,-7.47 0.99,-11.25 7.12,-46.02 50.22,-77.56 96.24,-70.44 617.77,97.19 1161.75,56.79 1631.91,-121.2z"/><path fill-rule="nonzero" d="M2934.83 4091.43c-33.78,-32.14 -35.11,-85.61 -2.97,-119.39 32.14,-33.78 85.61,-35.11 119.39,-2.97l873.03 828.23 1494.8 -1448.82c33.42,-32.51 86.88,-31.77 119.39,1.65 32.51,33.42 31.77,86.88 -1.65,119.39l-1552.03 1504.29c-32.26,32.5 -84.77,33.38 -118.11,1.66l-931.85 -884.04z"/></svg>