<svg width="16" height="14" viewBox="0 0 16 14" fill="none" xmlns="http://www.w3.org/2000/svg">
<path d="M4.55643 6.375L7.40158 0.75C7.96751 0.75 8.51027 0.947544 8.91044 1.29917C9.31062 1.65081 9.53544 2.12772 9.53544 2.625V5.125H13.5613C13.7675 5.12295 13.9718 5.16031 14.1599 5.23451C14.3481 5.30871 14.5156 5.41796 14.6509 5.5547C14.7862 5.69143 14.8861 5.85239 14.9436 6.02641C15.0011 6.20042 15.0148 6.38335 14.9839 6.5625L14.0023 12.1875C13.9509 12.4856 13.7786 12.7573 13.5172 12.9525C13.2557 13.1478 12.9228 13.2534 12.5797 13.25H4.55643M4.55643 6.375V13.25M4.55643 6.375H2.42257C2.04528 6.375 1.68345 6.5067 1.41666 6.74112C1.14988 6.97554 1 7.29348 1 7.625V12C1 12.3315 1.14988 12.6495 1.41666 12.8839C1.68345 13.1183 2.04528 13.25 2.42257 13.25H4.55643" stroke="#218037" stroke-width="1.5" stroke-linecap="round" stroke-linejoin="round"/>
</svg>
